<?xml version="1.0" encoding="UTF-8" standalone="no"?>
<!DOCTYPE svg PUBLIC "-//W3C//DTD SVG 1.1//EN" "http://www.w3.org/Graphics/SVG/1.1/DTD/svg11.dtd">
<svg width="100%" height="100%" viewBox="0 0 32 32" version="1.1" xmlns="http://www.w3.org/2000/svg" xmlns:xlink="http://www.w3.org/1999/xlink" xml:space="preserve" xmlns:serif="http://www.serif.com/" style="fill-rule:evenodd;clip-rule:evenodd;stroke-linejoin:round;stroke-miterlimit:2;">
    <g transform="matrix(1,0,0,1,-714,-84)">
        <g id="ic_list" transform="matrix(1,0,0,1.23077,714,-14.4615)">
            <rect x="0" y="80" width="32" height="26" style="fill:none;"/>
            <g transform="matrix(1,0,0,0.8125,-714,10.125)">
                <path d="M724,92C724,91.735 723.895,91.48 723.707,91.293C723.52,91.105 723.265,91 723,91L719,91C718.735,91 718.48,91.105 718.293,91.293C718.105,91.48 718,91.735 718,92L718,96C718,96.265 718.105,96.52 718.293,96.707C718.48,96.895 718.735,97 719,97L723,97C723.265,97 723.52,96.895 723.707,96.707C723.895,96.52 724,96.265 724,96L724,92Z" style="fill:rgb(51,51,51);"/>
            </g>
            <g transform="matrix(1,0,0,0.8125,-714,23.125)">
                <path d="M724,92C724,91.735 723.895,91.48 723.707,91.293C723.52,91.105 723.265,91 723,91L719,91C718.735,91 718.48,91.105 718.293,91.293C718.105,91.48 718,91.735 718,92L718,96C718,96.265 718.105,96.52 718.293,96.707C718.48,96.895 718.735,97 719,97L723,97C723.265,97 723.52,96.895 723.707,96.707C723.895,96.52 724,96.265 724,96L724,92Z" style="fill:rgb(51,51,51);"/>
            </g>
            <g transform="matrix(1,0,0,0.8125,-714,16.625)">
                <path d="M724,92C724,91.735 723.895,91.48 723.707,91.293C723.52,91.105 723.265,91 723,91L719,91C718.735,91 718.48,91.105 718.293,91.293C718.105,91.48 718,91.735 718,92L718,96C718,96.265 718.105,96.52 718.293,96.707C718.48,96.895 718.735,97 719,97L723,97C723.265,97 723.52,96.895 723.707,96.707C723.895,96.52 724,96.265 724,96L724,92Z" style="fill:rgb(51,51,51);"/>
            </g>
            <g transform="matrix(2.66667,0,0,0.8125,-1902.67,10.125)">
                <path d="M724,92C724,91.735 723.96,91.48 723.89,91.293C723.82,91.105 723.724,91 723.625,91L718.375,91C718.276,91 718.18,91.105 718.11,91.293C718.04,91.48 718,91.735 718,92L718,96C718,96.265 718.04,96.52 718.11,96.707C718.18,96.895 718.276,97 718.375,97L723.625,97C723.832,97 724,96.552 724,96L724,92Z" style="fill:rgb(94,94,94);"/>
            </g>
            <g transform="matrix(2.66667,0,0,0.8125,-1902.67,23.125)">
                <path d="M724,92C724,91.735 723.96,91.48 723.89,91.293C723.82,91.105 723.724,91 723.625,91L718.375,91C718.276,91 718.18,91.105 718.11,91.293C718.04,91.48 718,91.735 718,92L718,96C718,96.265 718.04,96.52 718.11,96.707C718.18,96.895 718.276,97 718.375,97L723.625,97C723.832,97 724,96.552 724,96L724,92Z" style="fill:rgb(94,94,94);"/>
            </g>
            <g transform="matrix(2.66667,0,0,0.8125,-1902.67,16.625)">
                <path d="M724,92C724,91.735 723.96,91.48 723.89,91.293C723.82,91.105 723.724,91 723.625,91L718.375,91C718.276,91 718.18,91.105 718.11,91.293C718.04,91.48 718,91.735 718,92L718,96C718,96.265 718.04,96.52 718.11,96.707C718.18,96.895 718.276,97 718.375,97L723.625,97C723.832,97 724,96.552 724,96L724,92Z" style="fill:rgb(94,94,94);"/>
            </g>
        </g>
    </g>
</svg>
