<?xml version="1.0" encoding="UTF-8" standalone="no"?>
<!DOCTYPE svg PUBLIC "-//W3C//DTD SVG 1.1//EN" "http://www.w3.org/Graphics/SVG/1.1/DTD/svg11.dtd">
<svg width="100%" height="100%" viewBox="0 0 32 32" version="1.1" xmlns="http://www.w3.org/2000/svg" xmlns:xlink="http://www.w3.org/1999/xlink" xml:space="preserve" xmlns:serif="http://www.serif.com/" style="fill-rule:evenodd;clip-rule:evenodd;stroke-linejoin:round;stroke-miterlimit:1.5;">
    <g transform="matrix(1,0,0,1,-336,-252)">
        <g id="ic_radiator" transform="matrix(1,0,0,1.23077,336,153.538)">
            <rect x="0" y="80" width="32" height="26" style="fill:none;"/>
            <g transform="matrix(1.57576,0,0,1.2803,-205,53.9508)">
                <g>
                    <g transform="matrix(0.833333,0,0,1,-1301.17,-1274)">
                        <path d="M1727,1299.63C1727,1299.28 1726.66,1299 1726.24,1299C1725.79,1299 1725.21,1299 1724.76,1299C1724.34,1299 1724,1299.28 1724,1299.63C1724,1301.44 1724,1306.56 1724,1308.37C1724,1308.72 1724.34,1309 1724.76,1309C1725.21,1309 1725.79,1309 1726.24,1309C1726.66,1309 1727,1308.72 1727,1308.37C1727,1306.56 1727,1301.44 1727,1299.63Z" style="fill:rgb(51,51,51);"/>
                    </g>
                    <g transform="matrix(5.5,0,0,0.1,-9350,-93.9)">
                        <rect x="1724" y="1299" width="3" height="10" style="fill:rgb(51,51,51);"/>
                    </g>
                    <g transform="matrix(1,0,0,0.963675,-1588.5,-1226.41)">
                        <path d="M1722,1310L1722,1301.91C1722,1301.67 1722.09,1301.44 1722.26,1301.27C1722.42,1301.1 1722.64,1301 1722.87,1301C1723.41,1301 1724,1301 1724,1301" style="fill:none;stroke:rgb(138,138,138);stroke-width:1.29px;"/>
                    </g>
                    <g transform="matrix(0.833333,0,0,1,-1298.67,-1274)">
                        <path d="M1727,1299.63C1727,1299.28 1726.66,1299 1726.24,1299C1725.79,1299 1725.21,1299 1724.76,1299C1724.34,1299 1724,1299.28 1724,1299.63C1724,1301.44 1724,1306.56 1724,1308.37C1724,1308.72 1724.34,1309 1724.76,1309C1725.21,1309 1725.79,1309 1726.24,1309C1726.66,1309 1727,1308.72 1727,1308.37C1727,1306.56 1727,1301.44 1727,1299.63Z" style="fill:rgb(94,94,94);"/>
                    </g>
                    <g transform="matrix(0.833333,0,0,1,-1296.17,-1274)">
                        <path d="M1727,1299.63C1727,1299.28 1726.66,1299 1726.24,1299C1725.79,1299 1725.21,1299 1724.76,1299C1724.34,1299 1724,1299.28 1724,1299.63C1724,1301.44 1724,1306.56 1724,1308.37C1724,1308.72 1724.34,1309 1724.76,1309C1725.21,1309 1725.79,1309 1726.24,1309C1726.66,1309 1727,1308.72 1727,1308.37C1727,1306.56 1727,1301.44 1727,1299.63Z" style="fill:rgb(51,51,51);"/>
                    </g>
                    <g transform="matrix(0.833333,0,0,1,-1291.17,-1274)">
                        <path d="M1727,1299.63C1727,1299.28 1726.66,1299 1726.24,1299C1725.79,1299 1725.21,1299 1724.76,1299C1724.34,1299 1724,1299.28 1724,1299.63C1724,1301.44 1724,1306.56 1724,1308.37C1724,1308.72 1724.34,1309 1724.76,1309C1725.21,1309 1725.79,1309 1726.24,1309C1726.66,1309 1727,1308.72 1727,1308.37C1727,1306.56 1727,1301.44 1727,1299.63Z" style="fill:rgb(51,51,51);"/>
                    </g>
                    <g transform="matrix(0.833333,0,0,1,-1293.67,-1274)">
                        <path d="M1727,1299.63C1727,1299.28 1726.66,1299 1726.24,1299C1725.79,1299 1725.21,1299 1724.76,1299C1724.34,1299 1724,1299.28 1724,1299.63C1724,1301.44 1724,1306.56 1724,1308.37C1724,1308.72 1724.34,1309 1724.76,1309C1725.21,1309 1725.79,1309 1726.24,1309C1726.66,1309 1727,1308.72 1727,1308.37C1727,1306.56 1727,1301.44 1727,1299.63Z" style="fill:rgb(94,94,94);"/>
                    </g>
                    <g transform="matrix(1,0,0,0.5,-1586.75,-619)">
                        <path d="M1723.5,1310L1723.5,1308" style="fill:none;stroke:rgb(138,138,138);stroke-width:1.61px;"/>
                    </g>
                    <g transform="matrix(1,0,0,0.5,-1576.75,-619)">
                        <path d="M1723.5,1310L1723.5,1308" style="fill:none;stroke:rgb(138,138,138);stroke-width:1.61px;"/>
                    </g>
                </g>
            </g>
        </g>
    </g>
</svg>
