<?xml version="1.0" encoding="UTF-8" standalone="no"?>
<!DOCTYPE svg PUBLIC "-//W3C//DTD SVG 1.1//EN" "http://www.w3.org/Graphics/SVG/1.1/DTD/svg11.dtd">
<svg width="100%" height="100%" viewBox="0 0 32 32" version="1.1" xmlns="http://www.w3.org/2000/svg" xmlns:xlink="http://www.w3.org/1999/xlink" xml:space="preserve" xmlns:serif="http://www.serif.com/" style="fill-rule:evenodd;clip-rule:evenodd;stroke-linejoin:round;stroke-miterlimit:2;">
    <g transform="matrix(1,0,0,1,-588,-294)">
        <g id="ic_rssi_20" transform="matrix(1,0,0,1.23077,588,195.538)">
            <rect x="0" y="80" width="32" height="26" style="fill:none;"/>
            <g transform="matrix(6.12323e-17,-0.8125,1.04348,5.19144e-17,-312.174,446.438)">
                <path d="M423,303L447,326L423,326L423,303Z" style="fill:rgb(51,51,51);"/>
                <clipPath id="_clip1">
                    <path d="M423,303L447,326L423,326L423,303Z"/>
                </clipPath>
                <g clip-path="url(#_clip1)">
                    <g transform="matrix(1.08333,1.2326e-32,-1.33531e-32,1.08333,-36.25,-26.2083)">
                        <path d="M423,303L447,326L423,326L423,303Z" style="fill:rgb(138,138,138);"/>
                    </g>
                    <g transform="matrix(0.880208,1.66914e-32,-6.67656e-33,0.880208,49.6719,35.3385)">
                        <path d="M423,303L447,326L423,326L423,303Z" style="fill:rgb(138,138,138);"/>
                    </g>
                    <g transform="matrix(0.677083,7.70372e-33,0,0.677083,135.594,96.8854)">
                        <path d="M423,303L447,326L423,326L423,303Z" style="fill:rgb(138,138,138);"/>
                    </g>
                    <g transform="matrix(0.473958,2.05433e-33,0,0.473958,221.516,158.432)">
                        <path d="M423,303L447,326L423,326L423,303Z" style="fill:rgb(138,138,138);"/>
                    </g>
                    <g transform="matrix(0.270833,-3.59507e-33,-3.33828e-33,0.270833,307.438,219.979)">
                        <path d="M423,303L447,326L423,326L423,303Z" style="fill:rgb(51,51,51);"/>
                    </g>
                </g>
            </g>
        </g>
    </g>
</svg>
