<?xml version="1.0" encoding="UTF-8" standalone="no"?>
<!DOCTYPE svg PUBLIC "-//W3C//DTD SVG 1.1//EN" "http://www.w3.org/Graphics/SVG/1.1/DTD/svg11.dtd">
<svg width="100%" height="100%" viewBox="0 0 32 32" version="1.1" xmlns="http://www.w3.org/2000/svg" xmlns:xlink="http://www.w3.org/1999/xlink" xml:space="preserve" xmlns:serif="http://www.serif.com/" style="fill-rule:evenodd;clip-rule:evenodd;stroke-linejoin:round;stroke-miterlimit:2;">
    <g transform="matrix(1,0,0,1,-798,-210)">
        <g id="ic_user_id" transform="matrix(1,0,0,1.23077,798,111.538)">
            <rect x="0" y="80" width="32" height="26" style="fill:none;"/>
            <g transform="matrix(1,0,0,0.8125,-797,-93.0625)">
                <path d="M826,221C826,220.735 825.895,220.48 825.707,220.293C825.52,220.105 825.265,220 825,220C820.866,220 805.134,220 801,220C800.735,220 800.48,220.105 800.293,220.293C800.105,220.48 800,220.735 800,221C800,224.151 800,233.849 800,237C800,237.265 800.105,237.52 800.293,237.707C800.48,237.895 800.735,238 801,238C805.134,238 820.866,238 825,238C825.265,238 825.52,237.895 825.707,237.707C825.895,237.52 826,237.265 826,237C826,233.849 826,224.151 826,221Z" style="fill:rgb(138,138,138);"/>
                <path d="M826,221C826,220.735 825.895,220.48 825.707,220.293C825.52,220.105 825.265,220 825,220C820.866,220 805.134,220 801,220C800.735,220 800.48,220.105 800.293,220.293C800.105,220.48 800,220.735 800,221C800,224.151 800,233.849 800,237C800,237.265 800.105,237.52 800.293,237.707C800.48,237.895 800.735,238 801,238C805.134,238 820.866,238 825,238C825.265,238 825.52,237.895 825.707,237.707C825.895,237.52 826,237.265 826,237C826,233.849 826,224.151 826,221ZM802,222L802,236L824,236L824,222L802,222Z" style="fill:rgb(51,51,51);"/>
            </g>
            <g transform="matrix(1.57576,0,0,1.2803,-8619.94,-1390.55)">
                <path d="M5480.63,1161.92L5480.63,1161.5C5480.63,1160.33 5479.95,1159.32 5478.95,1158.85C5478.79,1158.78 5478.67,1158.63 5478.64,1158.45C5478.6,1158.27 5478.65,1158.08 5478.77,1157.95C5479,1157.7 5479.13,1157.36 5479.13,1157C5479.13,1156.21 5478.5,1155.58 5477.71,1155.58C5476.93,1155.58 5476.29,1156.21 5476.29,1157C5476.29,1157.36 5476.42,1157.7 5476.65,1157.95C5476.77,1158.08 5476.82,1158.27 5476.78,1158.45C5476.75,1158.63 5476.63,1158.78 5476.47,1158.85C5475.47,1159.32 5474.79,1160.33 5474.79,1161.5L5474.79,1161.92L5480.63,1161.92Z" style="fill:rgb(51,51,51);"/>
            </g>
            <g transform="matrix(1.46465,0,0,0.8125,-1180.4,-90.625)">
                <rect x="817" y="221" width="6" height="2" style="fill:rgb(51,51,51);"/>
            </g>
            <g transform="matrix(1.16667,0,0,0.8125,-935.167,-87.375)">
                <rect x="817" y="221" width="6" height="2" style="fill:rgb(51,51,51);"/>
            </g>
            <g transform="matrix(1,0,0,0.8125,-798,-84.125)">
                <rect x="817" y="221" width="6" height="2" style="fill:rgb(51,51,51);"/>
            </g>
        </g>
    </g>
</svg>
