<?xml version="1.0" encoding="UTF-8" standalone="no"?>
<!DOCTYPE svg PUBLIC "-//W3C//DTD SVG 1.1//EN" "http://www.w3.org/Graphics/SVG/1.1/DTD/svg11.dtd">
<svg width="100%" height="100%" viewBox="0 0 32 32" version="1.1" xmlns="http://www.w3.org/2000/svg" xmlns:xlink="http://www.w3.org/1999/xlink" xml:space="preserve" xmlns:serif="http://www.serif.com/" style="fill-rule:evenodd;clip-rule:evenodd;stroke-linejoin:round;stroke-miterlimit:2;">
    <g transform="matrix(1,0,0,1,-756,-126)">
        <g id="ic_bell" transform="matrix(1,0,0,1.23077,756,27.5385)">
            <rect x="0" y="80" width="32" height="26" style="fill:none;"/>
            <g transform="matrix(1.08333,0,0,1.08333,-1.33333,-7.75)">
                <g transform="matrix(1.2,0,0,0.975,-909.8,-45.45)">
                    <circle cx="771.5" cy="149.5" r="2.5" style="fill:rgb(51,51,51);"/>
                </g>
                <g transform="matrix(1,0,0,0.8125,-756,-22.375)">
                    <path d="M770.027,132.326C770.009,132.22 770,132.111 770,132C770,130.896 770.896,130 772,130C773.104,130 774,130.896 774,132C774,132.111 773.991,132.22 773.973,132.326C776.379,133.148 778.111,135.429 778.111,138.111L778.111,139.562C778.111,142.878 779.012,144.132 780.718,146.975C780.875,147.236 781.03,147.495 781.183,147.749C781.553,148.367 781.563,149.136 781.208,149.763C780.853,150.39 780.188,150.778 779.468,150.778C775.365,150.778 768.635,150.778 764.532,150.778C763.812,150.778 763.147,150.39 762.792,149.763C762.437,149.136 762.447,148.367 762.817,147.749C762.97,147.495 763.125,147.236 763.282,146.975C764.988,144.132 765.889,142.878 765.889,139.562C765.889,138.718 765.889,138.111 765.889,138.111C765.889,135.429 767.621,133.148 770.027,132.326ZM772,134.463C772,134.197 771.882,133.945 771.677,133.775C771.473,133.605 771.203,133.535 770.942,133.584C769.308,134.016 768.017,135.307 767.624,136.948C767.577,137.198 767.644,137.456 767.806,137.651C767.969,137.847 768.21,137.96 768.464,137.96C768.464,138 768.464,138 768.464,138C768.803,138 769.092,137.753 769.144,137.418C769.352,136.261 770.26,135.353 771.413,135.119C771.736,135.069 771.974,134.791 771.974,134.464C772,134.463 772,134.463 772,134.463Z" style="fill:rgb(93,93,93);"/>
                </g>
            </g>
        </g>
    </g>
</svg>
