<?xml version="1.0" encoding="UTF-8" standalone="no"?>
<!DOCTYPE svg PUBLIC "-//W3C//DTD SVG 1.1//EN" "http://www.w3.org/Graphics/SVG/1.1/DTD/svg11.dtd">
<svg width="100%" height="100%" viewBox="0 0 32 32" version="1.1" xmlns="http://www.w3.org/2000/svg" xmlns:xlink="http://www.w3.org/1999/xlink" xml:space="preserve" xmlns:serif="http://www.serif.com/" style="fill-rule:evenodd;clip-rule:evenodd;stroke-miterlimit:1.5;">
    <g transform="matrix(1,0,0,1,-420,-42)">
        <g id="ic_room" transform="matrix(1,0,0,1,336,42)">
            <rect x="84" y="0" width="32" height="32" style="fill:none;"/>
            <g transform="matrix(1,0,0,1,-125.5,-43)">
                <path d="M213.5,69L217.5,69L217.5,49L234,49L234,69L238,69" style="fill:none;stroke:rgb(51,51,51);stroke-width:2px;"/>
            </g>
            <g transform="matrix(0.857143,-2.44249e-15,0,0.952381,-95.7143,-39.7143)">
                <path d="M233,46.95L219,48L219,69L233,70.05L233,46.95Z" style="fill:rgb(138,138,138);"/>
                <clipPath id="_clip1">
                    <path d="M233,46.95L219,48L219,69L233,70.05L233,46.95Z"/>
                </clipPath>
                <g clip-path="url(#_clip1)">
                    <g transform="matrix(2.33333,9.20338e-31,0,2.1,-293.167,-63.3)">
                        <circle cx="223" cy="58" r="1" style="fill:rgb(51,51,51);"/>
                    </g>
                </g>
                <path d="M233,46.95L219,48L219,69L233,70.05L233,46.95Z" style="fill:none;stroke:rgb(51,51,51);stroke-width:2.21px;"/>
            </g>
        </g>
    </g>
</svg>
