<?xml version="1.0" encoding="UTF-8" standalone="no"?>
<!DOCTYPE svg PUBLIC "-//W3C//DTD SVG 1.1//EN" "http://www.w3.org/Graphics/SVG/1.1/DTD/svg11.dtd">
<svg width="100%" height="100%" viewBox="0 0 32 32" version="1.1" xmlns="http://www.w3.org/2000/svg" xmlns:xlink="http://www.w3.org/1999/xlink" xml:space="preserve" xmlns:serif="http://www.serif.com/" style="fill-rule:evenodd;clip-rule:evenodd;stroke-linejoin:round;stroke-miterlimit:2;">
    <g transform="matrix(1,0,0,1,-672,-84)">
        <g id="ic_document" transform="matrix(1,0,0,1.23077,672,-14.4615)">
            <rect x="0" y="80" width="32" height="26" style="fill:none;"/>
            <g transform="matrix(1,0,0,1,1,1.625)">
                <g transform="matrix(1,0,0,0.8125,-672,11.75)">
                    <path d="M696,93L688,85L679,85C678.735,85 678.48,85.105 678.293,85.293C678.105,85.48 678,85.735 678,86C678,90.134 678,105.866 678,110C678,110.265 678.105,110.52 678.293,110.707C678.48,110.895 678.735,111 679,111C682.151,111 691.849,111 695,111C695.265,111 695.52,110.895 695.707,110.707C695.895,110.52 696,110.265 696,110C696,107.223 696,99.213 696,93Z" style="fill:rgb(94,94,94);"/>
                </g>
                <g transform="matrix(1,0,0,0.8125,-672,11.75)">
                    <path d="M696,93C696,93 691.146,93 689,93C688.448,93 688,92.552 688,92C688,89.854 688,85 688,85L679,85C678.735,85 678.48,85.105 678.293,85.293C678.105,85.48 678,85.735 678,86C678,90.134 678,105.866 678,110C678,110.265 678.105,110.52 678.293,110.707C678.48,110.895 678.735,111 679,111C682.151,111 691.849,111 695,111C695.265,111 695.52,110.895 695.707,110.707C695.895,110.52 696,110.265 696,110C696,107.223 696,99.213 696,93Z" style="fill:rgb(138,138,138);"/>
                </g>
                <g transform="matrix(1,0,0,0.8125,-672,10.9375)">
                    <rect x="681" y="91" width="5" height="2" style="fill:rgb(51,51,51);"/>
                </g>
                <g transform="matrix(2.4,0,0,0.8125,-1625.4,15)">
                    <rect x="681" y="91" width="5" height="2" style="fill:rgb(51,51,51);"/>
                </g>
                <g transform="matrix(2.4,0,0,0.8125,-1625.4,19.0625)">
                    <rect x="681" y="91" width="5" height="2" style="fill:rgb(51,51,51);"/>
                </g>
                <g transform="matrix(2.4,0,0,0.8125,-1625.4,23.125)">
                    <rect x="681" y="91" width="5" height="2" style="fill:rgb(51,51,51);"/>
                </g>
            </g>
        </g>
    </g>
</svg>
