<?xml version="1.0" encoding="UTF-8" standalone="no"?>
<!DOCTYPE svg PUBLIC "-//W3C//DTD SVG 1.1//EN" "http://www.w3.org/Graphics/SVG/1.1/DTD/svg11.dtd">
<svg width="100%" height="100%" viewBox="0 0 32 32" version="1.1" xmlns="http://www.w3.org/2000/svg" xmlns:xlink="http://www.w3.org/1999/xlink" xml:space="preserve" xmlns:serif="http://www.serif.com/" style="fill-rule:evenodd;clip-rule:evenodd;stroke-linejoin:round;stroke-miterlimit:2;">
    <g transform="matrix(1,0,0,1,-588,-42)">
        <g id="ic_user" transform="matrix(1,0,0,1.23077,588,-56.4615)">
            <rect x="0" y="80" width="32" height="26" style="fill:none;"/>
            <g transform="matrix(4.09697,0,0,3.32879,-22426,-3764.23)">
                <path d="M5480.63,1161.92L5480.63,1161.5C5480.63,1160.33 5479.95,1159.32 5478.95,1158.85C5478.79,1158.78 5478.67,1158.63 5478.64,1158.45C5478.6,1158.27 5478.65,1158.08 5478.77,1157.95C5479,1157.7 5479.13,1157.36 5479.13,1157C5479.13,1156.21 5478.5,1155.58 5477.71,1155.58C5476.93,1155.58 5476.29,1156.21 5476.29,1157C5476.29,1157.36 5476.42,1157.7 5476.65,1157.95C5476.77,1158.08 5476.82,1158.27 5476.78,1158.45C5476.75,1158.63 5476.63,1158.78 5476.47,1158.85C5475.47,1159.32 5474.79,1160.33 5474.79,1161.5L5474.79,1161.92L5480.63,1161.92Z" style="fill:rgb(51,51,51);"/>
            </g>
        </g>
    </g>
</svg>
