<?xml version="1.0" encoding="UTF-8" standalone="no"?>
<!DOCTYPE svg PUBLIC "-//W3C//DTD SVG 1.1//EN" "http://www.w3.org/Graphics/SVG/1.1/DTD/svg11.dtd">
<svg width="100%" height="100%" viewBox="0 0 32 32" version="1.1" xmlns="http://www.w3.org/2000/svg" xmlns:xlink="http://www.w3.org/1999/xlink" xml:space="preserve" xmlns:serif="http://www.serif.com/" style="fill-rule:evenodd;clip-rule:evenodd;stroke-linejoin:round;stroke-miterlimit:2;">
    <g transform="matrix(1,0,0,1,-420,0)">
        <g id="ic_okay" transform="matrix(1,0,0,1.23077,420,-98.4615)">
            <rect x="0" y="80" width="32" height="26" style="fill:none;"/>
            <g transform="matrix(1.44444,0,0,1.17361,-35.8496,-72.4792)">
                <path d="M35.896,132C40.863,132 44.896,136.033 44.896,141C44.896,145.967 40.863,150 35.896,150C30.929,150 26.896,145.967 26.896,141C26.896,136.033 30.929,132 35.896,132ZM34.5,142.775L39.642,137.633L41.571,139.561L34.5,146.632L30,142.132L31.928,140.204L34.5,142.775Z" style="fill:rgb(138,138,138);"/>
            </g>
        </g>
    </g>
</svg>
