<?xml version="1.0" encoding="UTF-8" standalone="no"?>
<!DOCTYPE svg PUBLIC "-//W3C//DTD SVG 1.1//EN" "http://www.w3.org/Graphics/SVG/1.1/DTD/svg11.dtd">
<svg width="100%" height="100%" viewBox="0 0 32 32" version="1.1" xmlns="http://www.w3.org/2000/svg" xmlns:xlink="http://www.w3.org/1999/xlink" xml:space="preserve" xmlns:serif="http://www.serif.com/" style="fill-rule:evenodd;clip-rule:evenodd;stroke-linejoin:round;stroke-miterlimit:2;">
    <g transform="matrix(1,0,0,1,-336,0)">
        <g id="ic_alert" transform="matrix(1,0,0,1.23077,336,-98.4615)">
            <rect x="0" y="80" width="32" height="26" style="fill:none;"/>
            <g transform="matrix(1.80364,0,0,1.46546,-1012.07,-198.072)">
                <path d="M568.54,192.224C568.842,191.719 569.388,191.409 569.977,191.408C570.566,191.407 571.112,191.715 571.416,192.22C573.206,195.191 576.245,200.236 578.073,203.273C578.385,203.79 578.394,204.435 578.098,204.962C577.801,205.488 577.244,205.814 576.639,205.815C573.03,205.821 566.97,205.83 563.361,205.836C562.756,205.837 562.198,205.513 561.9,204.988C561.601,204.462 561.608,203.817 561.918,203.298C563.738,200.256 566.76,195.201 568.54,192.224ZM569.01,203.101C569.01,202.835 569.107,202.605 569.302,202.41C569.497,202.215 569.729,202.118 570,202.118C570.271,202.118 570.503,202.215 570.698,202.41C570.893,202.605 570.99,202.837 570.99,203.108C570.99,203.383 570.893,203.618 570.698,203.813C570.508,204.003 570.275,204.098 570,204.098C569.72,204.098 569.485,204.003 569.295,203.813C569.105,203.623 569.01,203.386 569.01,203.101ZM570.001,200.449C570.445,200.449 570.805,200.089 570.805,199.645C570.805,198.386 570.805,195.965 570.805,194.706C570.805,194.262 570.445,193.902 570.001,193.902C570,193.902 570,193.902 569.999,193.902C569.555,193.902 569.195,194.262 569.195,194.706C569.195,195.965 569.195,198.386 569.195,199.645C569.195,200.089 569.555,200.449 569.999,200.449C570,200.449 570,200.449 570.001,200.449Z" style="fill:rgb(51,51,51);"/>
            </g>
        </g>
    </g>
</svg>
