<?xml version="1.0" encoding="UTF-8" standalone="no"?>
<!DOCTYPE svg PUBLIC "-//W3C//DTD SVG 1.1//EN" "http://www.w3.org/Graphics/SVG/1.1/DTD/svg11.dtd">
<svg width="100%" height="100%" viewBox="0 0 32 32" version="1.1" xmlns="http://www.w3.org/2000/svg" xmlns:xlink="http://www.w3.org/1999/xlink" xml:space="preserve" xmlns:serif="http://www.serif.com/" style="fill-rule:evenodd;clip-rule:evenodd;stroke-linejoin:round;stroke-miterlimit:2;">
    <g transform="matrix(1,0,0,1,-714,-252)">
        <g id="ic_label" transform="matrix(1,0,0,1.23077,714,153.538)">
            <rect x="0" y="80" width="32" height="26" style="fill:none;"/>
            <g transform="matrix(1,0,0,0.8125,-712,-123.938)">
                <path d="M733.909,260C733.909,260 738.475,264.507 740.279,266.288C740.469,266.476 740.577,266.733 740.577,267C740.577,267.267 740.469,267.524 740.279,267.712C738.475,269.493 733.909,274 733.909,274L717,274C716.47,274 715.961,273.789 715.586,273.414C715.211,273.039 715,272.53 715,272C715,269.339 715,264.661 715,262C715,261.47 715.211,260.961 715.586,260.586C715.961,260.211 716.47,260 717,260C721.863,260 733.909,260 733.909,260Z" style="fill:rgb(51,51,51);"/>
                <path d="M733.909,260C733.909,260 738.475,264.507 740.279,266.288C740.469,266.476 740.577,266.733 740.577,267C740.577,267.267 740.469,267.524 740.279,267.712C738.475,269.493 733.909,274 733.909,274L717,274C716.47,274 715.961,273.789 715.586,273.414C715.211,273.039 715,272.53 715,272C715,269.339 715,264.661 715,262C715,261.47 715.211,260.961 715.586,260.586C715.961,260.211 716.47,260 717,260C721.863,260 733.909,260 733.909,260ZM717,272L733.088,272L738.153,267L733.088,262L717,262L717,272Z" style="fill:rgb(51,51,51);"/>
            </g>
        </g>
    </g>
</svg>
