<?xml version="1.0" encoding="UTF-8" standalone="no"?>
<!DOCTYPE svg PUBLIC "-//W3C//DTD SVG 1.1//EN" "http://www.w3.org/Graphics/SVG/1.1/DTD/svg11.dtd">
<svg width="100%" height="100%" viewBox="0 0 32 32" version="1.1" xmlns="http://www.w3.org/2000/svg" xmlns:xlink="http://www.w3.org/1999/xlink" xml:space="preserve" xmlns:serif="http://www.serif.com/" style="fill-rule:evenodd;clip-rule:evenodd;stroke-linejoin:round;stroke-miterlimit:2;">
    <g transform="matrix(1,0,0,1,-630,-42)">
        <g id="ic_heart" transform="matrix(1,0,0,1.23077,630,-56.4615)">
            <rect x="0" y="80" width="32" height="26" style="fill:none;"/>
            <g transform="matrix(0.96,0,0,0.78,-402.56,46.59)">
                <path d="M436,49.928C437.173,48.164 439.179,47 441.455,47C444.884,47 447.7,49.643 447.978,53L448,53L447.98,53.032C447.993,53.201 448,53.372 448,53.545C448,63 436,72 436,72C436,72 424.022,63 424,53.545C424,53.372 424.007,53.201 424.02,53.032L424,53L424.022,53C424.3,49.643 427.116,47 430.545,47C432.821,47 434.827,48.164 436,49.928Z" style="fill:rgb(51,51,51);"/>
                <path d="M436,49.928C437.173,48.164 439.179,47 441.455,47C444.884,47 447.7,49.643 447.978,53L448,53L447.98,53.032C447.993,53.201 448,53.372 448,53.545C448,63 436,72 436,72C436,72 424.022,63 424,53.545C424,53.372 424.007,53.201 424.02,53.032L424,53L424.022,53C424.3,49.643 427.116,47 430.545,47C432.821,47 434.827,48.164 436,49.928ZM445.985,53.174L445.984,53.165C445.792,50.834 443.835,49 441.455,49C439.874,49 438.481,49.81 437.665,51.035C437.295,51.593 436.67,51.928 436,51.928C435.33,51.928 434.705,51.593 434.335,51.035C433.519,49.81 432.126,49 430.545,49C428.165,49 426.208,50.834 426.016,53.165L426,53.541C426.008,56.907 427.787,60.181 429.837,62.931C432.012,65.848 434.544,68.183 436.001,69.424C437.461,68.183 439.997,65.848 442.173,62.93C444.222,60.182 446,56.91 446,53.545L445.985,53.174Z" style="fill:rgb(51,51,51);"/>
            </g>
        </g>
    </g>
</svg>
