<?xml version="1.0" encoding="UTF-8" standalone="no"?>
<!DOCTYPE svg PUBLIC "-//W3C//DTD SVG 1.1//EN" "http://www.w3.org/Graphics/SVG/1.1/DTD/svg11.dtd">
<svg width="100%" height="100%" viewBox="0 0 32 32" version="1.1" xmlns="http://www.w3.org/2000/svg" xmlns:xlink="http://www.w3.org/1999/xlink" xml:space="preserve" xmlns:serif="http://www.serif.com/" style="fill-rule:evenodd;clip-rule:evenodd;stroke-linecap:round;stroke-miterlimit:1.5;">
    <g transform="matrix(1,0,0,1,-798,-294)">
        <g id="ic_download" transform="matrix(1,0,0,1.23077,798,195.538)">
            <rect x="0" y="80" width="32" height="26" style="fill:none;"/>
            <g transform="matrix(6.12323e-17,0.8125,-1.23077,6.12323e-17,130.462,78.375)">
                <g transform="matrix(1,0,0,0.8125,-798,-158.875)">
                    <path d="M817,303L821,303C822.105,303 823,303.895 823,305C823,307.661 823,312.339 823,315C823,316.105 822.105,317 821,317C819.255,317 817,317 817,317" style="fill:none;stroke:rgb(51,51,51);stroke-width:2px;"/>
                </g>
                <g transform="matrix(0.666667,0,0,0.8125,-527,-158.875)">
                    <g transform="matrix(9.18485e-17,-1,1.5,6.12323e-17,793.5,326)">
                        <path d="M19.6,14.04L16,18.84L12.4,14.04L19.6,14.04Z" style="fill:rgb(51,51,51);"/>
                        <path d="M16,9L16,15" style="fill:none;stroke:rgb(51,51,51);stroke-width:2px;"/>
                    </g>
                </g>
            </g>
        </g>
    </g>
</svg>
