<?xml version="1.0" encoding="UTF-8" standalone="no"?>
<!DOCTYPE svg PUBLIC "-//W3C//DTD SVG 1.1//EN" "http://www.w3.org/Graphics/SVG/1.1/DTD/svg11.dtd">
<svg width="100%" height="100%" viewBox="0 0 32 32" version="1.1" xmlns="http://www.w3.org/2000/svg" xmlns:xlink="http://www.w3.org/1999/xlink" xml:space="preserve" xmlns:serif="http://www.serif.com/" style="fill-rule:evenodd;clip-rule:evenodd;stroke-linecap:round;stroke-miterlimit:1.5;">
    <g transform="matrix(1,0,0,1,-672,-294)">
        <g id="ic_logout" transform="matrix(1,0,0,1.23077,672,195.538)">
            <rect x="0" y="80" width="32" height="26" style="fill:none;"/>
            <g transform="matrix(1,0,0,1,-3.5,8.2423e-13)">
                <g transform="matrix(1,0,0,0.8125,-798,-158.875)">
                    <path d="M817,303L821,303C822.105,303 823,303.895 823,305C823,307.661 823,312.339 823,315C823,316.105 822.105,317 821,317C819.255,317 817,317 817,317" style="fill:none;stroke:rgb(51,51,51);stroke-width:2px;"/>
                </g>
                <g transform="matrix(-0.666667,0,0,0.8125,558,-158.875)">
                    <g transform="matrix(-1.5,0,0,1,831.75,294)">
                        <path d="M11.46,19.6L6.66,16L11.46,12.4L11.46,19.6Z" style="fill:rgb(51,51,51);"/>
                        <path d="M16.5,16L10.5,16" style="fill:none;stroke:rgb(51,51,51);stroke-width:2px;"/>
                    </g>
                </g>
            </g>
        </g>
    </g>
</svg>
