<?xml version="1.0" encoding="UTF-8" standalone="no"?>
<!DOCTYPE svg PUBLIC "-//W3C//DTD SVG 1.1//EN" "http://www.w3.org/Graphics/SVG/1.1/DTD/svg11.dtd">
<svg width="100%" height="100%" viewBox="0 0 32 32" version="1.1" xmlns="http://www.w3.org/2000/svg" xmlns:xlink="http://www.w3.org/1999/xlink" xml:space="preserve" xmlns:serif="http://www.serif.com/" style="fill-rule:evenodd;clip-rule:evenodd;stroke-linejoin:round;stroke-miterlimit:2;">
    <g transform="matrix(1,0,0,1,-420,-210)">
        <g id="ic_gas" transform="matrix(1,0,0,1.23077,420,111.538)">
            <rect x="0" y="80" width="32" height="26" style="fill:none;"/>
            <g transform="matrix(0.565217,0,0,0.459239,-105.522,38.8098)">
                <path d="M220.395,139.957L220.315,139.994L219.222,140.375L218.708,140.521C217.524,140.833 216.281,141 215,141C206.997,141 200.5,134.503 200.5,126.5C200.5,111.5 205.5,108 215,95C212.935,112.618 212.391,117.52 218.5,116.5C221.484,115.418 224.737,111.745 225.442,104C227.308,107.679 229.5,115.838 229.5,126.5C229.5,132.179 226.228,137.099 221.469,139.479L220.395,139.957L217.415,132.537C217.451,132.523 217.487,132.508 217.501,132.502C217.501,132.502 217.582,132.467 217.549,132.482L217.823,132.357C217.823,132.357 217.902,132.318 217.858,132.339C217.858,132.339 217.885,132.326 217.892,132.323C220.028,131.255 221.5,129.049 221.5,126.5C221.5,125.625 221.484,124.77 221.45,123.936L221.227,124.021C220.77,124.187 220.298,124.31 219.818,124.391C215.479,125.115 212.44,124.091 210.236,122.411C209.754,122.044 209.285,121.625 208.846,121.143C208.617,122.729 208.5,124.491 208.5,126.5C208.5,130.087 211.413,133 215,133C215.575,133 216.133,132.926 216.665,132.786L217.414,132.538L220.395,139.957Z" style="fill:rgb(51,51,51);"/>
            </g>
        </g>
    </g>
</svg>
