<?xml version="1.0" encoding="UTF-8" standalone="no"?>
<!DOCTYPE svg PUBLIC "-//W3C//DTD SVG 1.1//EN" "http://www.w3.org/Graphics/SVG/1.1/DTD/svg11.dtd">
<svg width="100%" height="100%" viewBox="0 0 32 32" version="1.1" xmlns="http://www.w3.org/2000/svg" xmlns:xlink="http://www.w3.org/1999/xlink" xml:space="preserve" xmlns:serif="http://www.serif.com/" style="fill-rule:evenodd;clip-rule:evenodd;stroke-linejoin:round;stroke-miterlimit:2;">
    <g transform="matrix(1,0,0,1,-714,-168)">
        <g id="ic_" transform="matrix(1,0,0,1.23077,714,69.5385)">
            <rect x="0" y="80" width="32" height="26" style="fill:none;"/>
            <g transform="matrix(1.85714,0,0,1.50893,-864.286,-178.607)">
                <path d="M475.014,173.074C474.341,172.975 473.659,172.975 472.986,173.074L472.694,174.831C472.193,174.958 471.712,175.157 471.268,175.422L469.819,174.386C469.274,174.791 468.791,175.274 468.386,175.819L469.422,177.268C469.157,177.712 468.958,178.193 468.831,178.694L467.074,178.986C466.975,179.659 466.975,180.341 467.074,181.014L468.831,181.306C468.958,181.807 469.157,182.288 469.422,182.732L468.386,184.181C468.791,184.726 469.274,185.209 469.819,185.614L471.268,184.578C471.712,184.843 472.193,185.042 472.694,185.169L472.986,186.926C473.659,187.025 474.341,187.025 475.014,186.926L475.306,185.169C475.807,185.042 476.288,184.843 476.732,184.578L478.181,185.614C478.726,185.209 479.209,184.726 479.614,184.181L478.578,182.732C478.843,182.288 479.042,181.807 479.169,181.306L480.926,181.014C481.025,180.341 481.025,179.659 480.926,178.986L479.169,178.694C479.042,178.193 478.843,177.712 478.578,177.268L479.614,175.819C479.209,175.274 478.726,174.791 478.181,174.386L476.732,175.422C476.288,175.157 475.807,174.958 475.306,174.831L475.014,173.074ZM474,177.363C475.455,177.363 476.637,178.545 476.637,180C476.637,181.455 475.455,182.637 474,182.637C472.545,182.637 471.363,181.455 471.363,180C471.363,178.545 472.545,177.363 474,177.363Z" style="fill:rgb(51,51,51);"/>
            </g>
        </g>
    </g>
</svg>
