<?xml version="1.0" encoding="UTF-8" standalone="no"?>
<!DOCTYPE svg PUBLIC "-//W3C//DTD SVG 1.1//EN" "http://www.w3.org/Graphics/SVG/1.1/DTD/svg11.dtd">
<svg width="100%" height="100%" viewBox="0 0 32 32" version="1.1" xmlns="http://www.w3.org/2000/svg" xmlns:xlink="http://www.w3.org/1999/xlink" xml:space="preserve" xmlns:serif="http://www.serif.com/" style="fill-rule:evenodd;clip-rule:evenodd;stroke-linejoin:round;stroke-miterlimit:2;">
    <g transform="matrix(1,0,0,1,-756,-210)">
        <g id="ic_voltage" transform="matrix(1,0,0,1.23077,756,111.538)">
            <rect x="0" y="80" width="32" height="26" style="fill:none;"/>
            <g transform="matrix(0.615887,0,0,0.500408,-162.463,70.2854)">
                <path d="M291.403,55.393L292.391,45.835L285.173,49.58C284.213,50.017 283.09,49.884 282.258,49.236C281.426,48.587 281.023,47.531 281.211,46.493L284.065,24.284L291.935,25.716L287.998,42.387L294.088,39.993C294.826,39.658 295.688,39.754 296.334,40.244C296.979,40.735 297.303,41.54 297.178,42.34L294.34,55.853L298.368,56.483L291.232,66.5L287.5,54.782L291.403,55.393Z" style="fill:rgb(51,51,51);"/>
            </g>
        </g>
    </g>
</svg>
