<?xml version="1.0" encoding="UTF-8" standalone="no"?>
<!DOCTYPE svg PUBLIC "-//W3C//DTD SVG 1.1//EN" "http://www.w3.org/Graphics/SVG/1.1/DTD/svg11.dtd">
<svg width="100%" height="100%" viewBox="0 0 32 32" version="1.1" xmlns="http://www.w3.org/2000/svg" xmlns:xlink="http://www.w3.org/1999/xlink" xml:space="preserve" xmlns:serif="http://www.serif.com/" style="fill-rule:evenodd;clip-rule:evenodd;stroke-miterlimit:1.5;">
    <g transform="matrix(1,0,0,1,-378,-42)">
        <g id="ic_stairs" transform="matrix(1,0,0,1,378,42)">
            <rect x="0" y="0" width="32" height="32" style="fill:none;"/>
            <g transform="matrix(1,0,0,1.13043,-168,-51.1304)">
                <path d="M197,48.769C197,47.792 196.105,47 195,47L173,47C171.895,47 171,47.792 171,48.769L171,68.231C171,69.208 171.895,70 173,70L195,70C196.105,70 197,69.208 197,68.231L197,48.769Z" style="fill:rgb(138,138,138);"/>
                <path d="M197,48.769C197,47.792 196.105,47 195,47L173,47C171.895,47 171,47.792 171,48.769L171,68.231C171,69.208 171.895,70 173,70L195,70C196.105,70 197,69.208 197,68.231L197,48.769ZM173.134,68.112L194.866,68.112L194.866,48.888L173.134,48.888L173.134,68.112Z" style="fill:rgb(51,51,51);"/>
            </g>
            <g transform="matrix(0.75,0,0,1.08958,-123.5,-48.2854)">
                <path d="M174,65L180,65L180,61L186,61L186,57L192,57L192,53L198,53" style="fill:none;stroke:rgb(51,51,51);stroke-width:2px;"/>
            </g>
        </g>
    </g>
</svg>
