<?xml version="1.0" encoding="UTF-8" standalone="no"?>
<!DOCTYPE svg PUBLIC "-//W3C//DTD SVG 1.1//EN" "http://www.w3.org/Graphics/SVG/1.1/DTD/svg11.dtd">
<svg width="100%" height="100%" viewBox="0 0 32 32" version="1.1" xmlns="http://www.w3.org/2000/svg" xmlns:xlink="http://www.w3.org/1999/xlink" xml:space="preserve" xmlns:serif="http://www.serif.com/" style="fill-rule:evenodd;clip-rule:evenodd;stroke-linejoin:round;stroke-miterlimit:2;">
    <g transform="matrix(1,0,0,1,-630,-252)">
        <g id="ic_battery_0" transform="matrix(1,0,0,1.23077,630,153.538)">
            <rect x="0" y="80" width="32" height="26" style="fill:none;"/>
            <g transform="matrix(1.19008,0,0,0.777174,-452.893,-113.34)">
                <path d="M391.958,257L391.958,255.045C391.958,254.768 392.047,254.502 392.204,254.306C392.362,254.11 392.576,254 392.799,254C393.501,254 394.499,254 395.201,254C395.424,254 395.638,254.11 395.796,254.306C395.953,254.502 396.042,254.768 396.042,255.045C396.042,255.911 396.042,257 396.042,257C397.063,257.029 397.531,257.036 398.19,257.023C398.415,257.019 398.631,257.128 398.791,257.324C398.952,257.521 399.042,257.789 399.042,258.068C399.042,261.545 399.042,272.511 399.042,275.955C399.042,276.532 398.665,277 398.201,277C396.302,277 391.698,277 389.799,277C389.335,277 388.958,276.532 388.958,275.955C388.958,272.503 388.958,261.497 388.958,258.045C388.958,257.468 389.335,257 389.799,257C390.686,257 391.958,257 391.958,257Z" style="fill:rgb(138,138,138);"/>
            </g>
            <g transform="matrix(1.80364,0,0,1.46546,-1012.07,-198.884)">
                <path d="M569.01,203.101C569.01,202.835 569.107,202.605 569.302,202.41C569.497,202.215 569.729,202.118 570,202.118C570.271,202.118 570.503,202.215 570.698,202.41C570.893,202.605 570.99,202.837 570.99,203.108C570.99,203.383 570.893,203.618 570.698,203.813C570.508,204.003 570.275,204.098 570,204.098C569.72,204.098 569.485,204.003 569.295,203.813C569.105,203.623 569.01,203.386 569.01,203.101Z" style="fill:rgb(51,51,51);"/>
            </g>
            <g transform="matrix(1.80364,0,0,1.46546,-1012.07,-198.072)">
                <path d="M570.001,200.449C570.445,200.449 570.805,200.089 570.805,199.645C570.805,198.386 570.805,197.074 570.805,195.815C570.805,195.371 570.445,195.011 570.001,195.011C570,195.011 570,195.011 569.999,195.011C569.555,195.011 569.195,195.371 569.195,195.815C569.195,197.074 569.195,198.386 569.195,199.645C569.195,200.089 569.555,200.449 569.999,200.449C570,200.449 570,200.449 570.001,200.449Z" style="fill:rgb(51,51,51);"/>
            </g>
        </g>
    </g>
</svg>
