<?xml version="1.0" encoding="UTF-8" standalone="no"?>
<!DOCTYPE svg PUBLIC "-//W3C//DTD SVG 1.1//EN" "http://www.w3.org/Graphics/SVG/1.1/DTD/svg11.dtd">
<svg width="100%" height="100%" viewBox="0 0 32 32" version="1.1" xmlns="http://www.w3.org/2000/svg" xmlns:xlink="http://www.w3.org/1999/xlink" xml:space="preserve" xmlns:serif="http://www.serif.com/" style="fill-rule:evenodd;clip-rule:evenodd;stroke-linejoin:round;stroke-miterlimit:2;">
    <g transform="matrix(1,0,0,1,-126,-252)">
        <g id="ic_electricity_hight_tariff" transform="matrix(1,0,0,1.23077,126,153.538)">
            <rect x="0" y="80" width="32" height="26" style="fill:none;"/>
            <g transform="matrix(1.45984,0,0,1.18612,-189.246,57.1199)">
                <g transform="matrix(1,0,0,1,0.414428,-1.17678)">
                    <g transform="matrix(0.481631,0,0,0.481631,-1.53237,7.37075)">
                        <path d="M289.704,35.769C290.379,34.586 291.638,33.856 293,33.856C294.362,33.856 295.621,34.586 296.296,35.769C300.022,42.289 306.049,52.836 309.754,59.32C310.426,60.495 310.421,61.938 309.741,63.109C309.062,64.28 307.811,65 306.458,65C299.027,65 286.973,65 279.542,65C278.189,65 276.938,64.28 276.259,63.109C275.579,61.938 275.574,60.495 276.246,59.32C279.951,52.836 285.978,42.289 289.704,35.769Z" style="fill:rgb(255,227,0);"/>
                    </g>
                    <g transform="matrix(0.248921,0,0,0.248921,67.496,20.5473)">
                        <path d="M291.403,55.393L292.391,45.835L285.173,49.58C284.213,50.017 283.09,49.884 282.258,49.236C281.426,48.587 281.023,47.531 281.211,46.493L284.065,24.284L291.935,25.716L287.998,42.387L294.088,39.993C294.826,39.658 295.688,39.754 296.334,40.244C296.979,40.735 297.303,41.54 297.178,42.34L294.34,55.853L298.368,56.483L291.232,66.5L287.5,54.782L291.403,55.393Z"/>
                    </g>
                </g>
                <g transform="matrix(1,0,0,0.666667,-1639.5,-893.333)">
                    <rect x="1783" y="1391" width="6" height="6" style="fill:rgb(246,80,61);"/>
                </g>
                <g transform="matrix(1,0,0,1,-1636.31,-1358.21)">
                    <g transform="matrix(4,0,0,4,1780.28,1395.64)">
                        <path d="M0.282,-0L0.004,-0.716L0.107,-0.716L0.293,-0.196C0.308,-0.154 0.32,-0.115 0.331,-0.079C0.342,-0.118 0.354,-0.157 0.369,-0.196L0.563,-0.716L0.659,-0.716L0.379,-0L0.282,-0Z" style="fill:white;fill-rule:nonzero;"/>
                    </g>
                    <g transform="matrix(4,0,0,4,1782.95,1395.64)">
                        <path d="M0.259,-0L0.259,-0.631L0.023,-0.631L0.023,-0.716L0.591,-0.716L0.591,-0.631L0.354,-0.631L0.354,-0L0.259,-0Z" style="fill:white;fill-rule:nonzero;"/>
                    </g>
                </g>
            </g>
        </g>
    </g>
</svg>
