<?xml version="1.0" encoding="UTF-8" standalone="no"?>
<!DOCTYPE svg PUBLIC "-//W3C//DTD SVG 1.1//EN" "http://www.w3.org/Graphics/SVG/1.1/DTD/svg11.dtd">
<svg width="100%" height="100%" viewBox="0 0 32 32" version="1.1" xmlns="http://www.w3.org/2000/svg" xmlns:xlink="http://www.w3.org/1999/xlink" xml:space="preserve" xmlns:serif="http://www.serif.com/" style="fill-rule:evenodd;clip-rule:evenodd;stroke-linejoin:round;stroke-miterlimit:2;">
    <g transform="matrix(1,0,0,1,-462,-42)">
        <g id="ic_apartment_building" transform="matrix(1,0,0,1,336,42)">
            <rect x="126" y="0" width="32" height="32" style="fill:none;"/>
            <g transform="matrix(1,0,0,1,-126,-42)">
                <path d="M277,48L259,48L259,71L277,71L277,48ZM270,66L266,66L266,70L270,70L270,66ZM263,66L261,66L261,68L263,68L263,66ZM275,66L273,66L273,68L275,68L275,66ZM267,62L265,62L265,64L267,64L267,62ZM263,62L261,62L261,64L263,64L263,62ZM275,62L273,62L273,64L275,64L275,62ZM271,62L269,62L269,64L271,64L271,62ZM267,58L265,58L265,60L267,60L267,58ZM263,58L261,58L261,60L263,60L263,58ZM271,58L269,58L269,60L271,60L271,58ZM275,58L273,58L273,60L275,60L275,58ZM267,54L265,54L265,56L267,56L267,54ZM263,54L261,54L261,56L263,56L263,54ZM271,54L269,54L269,56L271,56L271,54ZM275,54L273,54L273,56L275,56L275,54ZM267,50L265,50L265,52L267,52L267,50ZM263,50L261,50L261,52L263,52L263,50ZM271,50L269,50L269,52L271,52L271,50ZM275,50L273,50L273,52L275,52L275,50ZM269,46L263,46L263,48L269,48L269,46Z" style="fill:rgb(51,51,51);"/>
                <path d="M277,48L259,48L259,71L277,71L277,48ZM270,66L266,66L266,70L270,70L270,66ZM263,66L261,66L261,68L263,68L263,66ZM275,66L273,66L273,68L275,68L275,66ZM271.5,65.5L272,65C272,65 271.5,65.5 271.5,65.5ZM267,62L265,62L265,64L267,64L267,62ZM263,62L261,62L261,64L263,64L263,62ZM275,62L273,62L273,64L275,64L275,62ZM271,62L269,62L269,64L271,64L271,62ZM267,58L265,58L265,60L267,60L267,58ZM263,58L261,58L261,60L263,60L263,58ZM271,58L269,58L269,60L271,60L271,58ZM275,58L273,58L273,60L275,60L275,58ZM267,54L265,54L265,56L267,56L267,54ZM263,54L261,54L261,56L263,56L263,54ZM271,54L269,54L269,56L271,56L271,54ZM275,54L273,54L273,56L275,56L275,54ZM267,50L265,50L265,52L267,52L267,50ZM263,50L261,50L261,52L263,52L263,50ZM271,50L269,50L269,52L271,52L271,50ZM275,50L273,50L273,52L275,52L275,50ZM269,46L263,46L263,48L269,48L269,46Z" style="fill:rgb(51,51,51);"/>
            </g>
        </g>
    </g>
</svg>
