<?xml version="1.0" encoding="UTF-8" standalone="no"?>
<!DOCTYPE svg PUBLIC "-//W3C//DTD SVG 1.1//EN" "http://www.w3.org/Graphics/SVG/1.1/DTD/svg11.dtd">
<svg width="100%" height="100%" viewBox="0 0 32 32" version="1.1" xmlns="http://www.w3.org/2000/svg" xmlns:xlink="http://www.w3.org/1999/xlink" xml:space="preserve" xmlns:serif="http://www.serif.com/" style="fill-rule:evenodd;clip-rule:evenodd;stroke-linejoin:round;stroke-miterlimit:2;">
    <g transform="matrix(1,0,0,1,-798,-126)">
        <g id="ic_money" transform="matrix(1,0,0,1.23077,798,27.5385)">
            <rect x="0" y="80" width="32" height="26" style="fill:none;"/>
            <g transform="matrix(1,0,0,0.8125,-798,-23.1875)">
                <path d="M827,136C827,135.448 826.552,135 826,135C821.866,135 806.134,135 802,135C801.448,135 801,135.448 801,136C801,138.873 801,147.127 801,150C801,150.552 801.448,151 802,151C806.134,151 821.866,151 826,151C826.552,151 827,150.552 827,150C827,147.127 827,138.873 827,136Z" style="fill:rgb(138,138,138);"/>
                <clipPath id="_clip1">
                    <path d="M827,136C827,135.448 826.552,135 826,135C821.866,135 806.134,135 802,135C801.448,135 801,135.448 801,136C801,138.873 801,147.127 801,150C801,150.552 801.448,151 802,151C806.134,151 821.866,151 826,151C826.552,151 827,150.552 827,150C827,147.127 827,138.873 827,136Z"/>
                </clipPath>
                <g clip-path="url(#_clip1)">
                    <path d="M827,135L801,135L801,151L827,151L827,135ZM807,137C807,137 807,137 807,137C806.37,138.889 804.889,140.37 803,141C803,141 803,141 803,141L803,145C803,145 803,145 803,145C804.889,145.63 806.37,147.111 807,149C807,149 807,149 807,149L821,149C821,149 821,149 821,149C821.63,147.111 823.111,145.63 825,145C825,145 825,145 825,145L825,141C825,141 825,141 825,141C823.111,140.37 821.63,138.889 821,137C821,137 821,137 821,137L807,137Z" style="fill:rgb(51,51,51);"/>
                    <g transform="matrix(0.9,0,0,0.9,81.4,14.3)">
                        <g transform="matrix(1,0,0,1,-1,-1)">
                            <circle cx="807" cy="144" r="2" style="fill:rgb(51,51,51);"/>
                        </g>
                        <g transform="matrix(1,0,0,1,15,-1)">
                            <circle cx="807" cy="144" r="2" style="fill:rgb(51,51,51);"/>
                        </g>
                        <g transform="matrix(2,0,0,2,-800,-145)">
                            <circle cx="807" cy="144" r="2" style="fill:rgb(51,51,51);"/>
                        </g>
                        <g transform="matrix(6.95161,0,0,7,811.514,145.593)">
                            <path d="M0.141,-0L0.141,-0.084L0.285,-0.084L0.285,-0.618L0.141,-0.582L0.141,-0.668L0.43,-0.741L0.43,-0.084L0.575,-0.084L0.575,-0L0.141,-0Z" style="fill:rgb(138,138,138);fill-rule:nonzero;"/>
                        </g>
                    </g>
                </g>
            </g>
        </g>
    </g>
</svg>
