<?xml version="1.0" encoding="UTF-8" standalone="no"?>
<!DOCTYPE svg PUBLIC "-//W3C//DTD SVG 1.1//EN" "http://www.w3.org/Graphics/SVG/1.1/DTD/svg11.dtd">
<svg width="100%" height="100%" viewBox="0 0 32 32" version="1.1" xmlns="http://www.w3.org/2000/svg" xmlns:xlink="http://www.w3.org/1999/xlink" xml:space="preserve" xmlns:serif="http://www.serif.com/" style="fill-rule:evenodd;clip-rule:evenodd;stroke-linecap:round;stroke-linejoin:round;stroke-miterlimit:1.5;">
    <g transform="matrix(1,0,0,1,-462,-168)">
        <g id="ic_home" transform="matrix(1,0,0,1.23077,462,69.5385)">
            <rect x="0" y="80" width="32" height="26" style="fill:none;"/>
            <g transform="matrix(1.67742,0,0,1.3629,-34.3226,38.1431)">
                <path d="M24,41.5L23.55,41.5C23.317,41.5 23.105,41.364 23.008,41.152C22.911,40.94 22.946,40.691 23.098,40.515C24.738,38.611 28.291,34.484 29.548,33.025C29.662,32.893 29.826,32.817 30,32.817C30.174,32.817 30.338,32.893 30.452,33.025C31.709,34.484 35.262,38.611 36.902,40.515C37.054,40.691 37.089,40.94 36.992,41.152C36.895,41.364 36.683,41.5 36.45,41.5C36.193,41.5 36,41.5 36,41.5L36,47.404C36,47.562 35.937,47.714 35.825,47.825C35.714,47.937 35.562,48 35.404,48C33.359,48 26.641,48 24.596,48C24.438,48 24.286,47.937 24.175,47.825C24.063,47.714 24,47.562 24,47.404C24,45.798 24,41.5 24,41.5Z" style="fill:rgb(77,77,77);"/>
            </g>
            <g transform="matrix(1,0,0,0.8125,-462,-56.5)">
                <path d="M467,185L478,172L489,185" style="fill:none;stroke:rgb(51,51,51);stroke-width:3px;"/>
            </g>
        </g>
    </g>
</svg>
