<?xml version="1.0" encoding="UTF-8" standalone="no"?>
<!DOCTYPE svg PUBLIC "-//W3C//DTD SVG 1.1//EN" "http://www.w3.org/Graphics/SVG/1.1/DTD/svg11.dtd">
<svg width="100%" height="100%" viewBox="0 0 32 32" version="1.1" xmlns="http://www.w3.org/2000/svg" xmlns:xlink="http://www.w3.org/1999/xlink" xml:space="preserve" xmlns:serif="http://www.serif.com/" style="fill-rule:evenodd;clip-rule:evenodd;stroke-linejoin:round;stroke-miterlimit:2;">
    <g transform="matrix(1,0,0,1,-630,-294)">
        <g id="ic_rssi_0" transform="matrix(1,0,0,1.23077,630,195.538)">
            <rect x="0" y="80" width="32" height="26" style="fill:none;"/>
            <g transform="matrix(6.12323e-17,-0.8125,1.04348,5.19144e-17,-312.174,446.438)">
                <path d="M423,303L447,326L423,326L423,303Z" style="fill:rgb(51,51,51);"/>
                <clipPath id="_clip1">
                    <path d="M423,303L447,326L423,326L423,303Z"/>
                </clipPath>
                <g clip-path="url(#_clip1)">
                    <g transform="matrix(1.08333,1.2326e-32,-1.33531e-32,1.08333,-36.25,-26.2083)">
                        <path d="M423,303L447,326L423,326L423,303Z" style="fill:rgb(138,138,138);"/>
                    </g>
                </g>
            </g>
            <g>
                <g transform="matrix(1.80364,0,0,1.46546,-1012.07,-198.072)">
                    <path d="M569.01,203.101C569.01,202.835 569.107,202.605 569.302,202.41C569.497,202.215 569.729,202.118 570,202.118C570.271,202.118 570.503,202.215 570.698,202.41C570.893,202.605 570.99,202.837 570.99,203.108C570.99,203.383 570.893,203.618 570.698,203.813C570.508,204.003 570.275,204.098 570,204.098C569.72,204.098 569.485,204.003 569.295,203.813C569.105,203.623 569.01,203.386 569.01,203.101Z" style="fill:rgb(51,51,51);"/>
                </g>
                <g transform="matrix(1.80364,0,0,1.46546,-1012.07,-198.072)">
                    <path d="M570.001,200.449C570.445,200.449 570.805,200.089 570.805,199.645C570.805,198.386 570.805,195.965 570.805,194.706C570.805,194.262 570.445,193.902 570.001,193.902C570,193.902 570,193.902 569.999,193.902C569.555,193.902 569.195,194.262 569.195,194.706C569.195,195.965 569.195,198.386 569.195,199.645C569.195,200.089 569.555,200.449 569.999,200.449C570,200.449 570,200.449 570.001,200.449Z" style="fill:rgb(51,51,51);"/>
                </g>
            </g>
        </g>
    </g>
</svg>
