<?xml version="1.0" encoding="UTF-8" standalone="no"?>
<!DOCTYPE svg PUBLIC "-//W3C//DTD SVG 1.1//EN" "http://www.w3.org/Graphics/SVG/1.1/DTD/svg11.dtd">
<svg width="100%" height="100%" viewBox="0 0 32 32" version="1.1" xmlns="http://www.w3.org/2000/svg" xmlns:xlink="http://www.w3.org/1999/xlink" xml:space="preserve" xmlns:serif="http://www.serif.com/" style="fill-rule:evenodd;clip-rule:evenodd;stroke-linejoin:round;stroke-miterlimit:2;">
    <g transform="matrix(1,0,0,1,-588,-84)">
        <g id="ic_chart" transform="matrix(1,0,0,1.23077,588,-14.4615)">
            <rect x="0" y="80" width="32" height="26" style="fill:none;"/>
            <g transform="matrix(1.04,0,0,1.04,1.96,-5.41)">
                <g transform="matrix(0.909091,0,0,0.909091,2.27273,6.38636)">
                    <g transform="matrix(1,0,0,0.8125,-378,11.75)">
                        <rect x="381" y="101" width="6" height="12" style="fill:rgb(51,51,51);"/>
                    </g>
                    <g transform="matrix(1,0,0,7.71875,-380,-768.656)">
                        <rect x="391" y="111" width="6" height="2" style="fill:rgb(51,51,51);"/>
                    </g>
                    <g transform="matrix(1,0,0,3.65625,-381,-309.594)">
                        <rect x="400" y="111" width="6" height="2" style="fill:rgb(51,51,51);"/>
                    </g>
                </g>
                <g transform="matrix(2,0,0,0.8125,-759,12.5625)">
                    <rect x="380" y="90" width="1" height="22" style="fill:rgb(138,138,138);"/>
                </g>
                <g transform="matrix(1.22465e-16,1.625,-1.09091,5.42741e-17,124.182,-515.563)">
                    <rect x="380" y="90" width="1" height="22" style="fill:rgb(138,138,138);"/>
                </g>
            </g>
        </g>
    </g>
</svg>
