<?xml version="1.0" encoding="UTF-8" standalone="no"?>
<!DOCTYPE svg PUBLIC "-//W3C//DTD SVG 1.1//EN" "http://www.w3.org/Graphics/SVG/1.1/DTD/svg11.dtd">
<svg width="100%" height="100%" viewBox="0 0 32 32" version="1.1" xmlns="http://www.w3.org/2000/svg" xmlns:xlink="http://www.w3.org/1999/xlink" xml:space="preserve" xmlns:serif="http://www.serif.com/" style="fill-rule:evenodd;clip-rule:evenodd;stroke-linejoin:round;stroke-miterlimit:2;">
    <g transform="matrix(1,0,0,1,-714,-126)">
        <g id="ic_opened_message" transform="matrix(1,0,0,1.23077,714,27.5385)">
            <rect x="0" y="80" width="32" height="26" style="fill:none;"/>
            <g transform="matrix(1,0,0,0.8125,-504,-22.375)">
                <path d="M507,137.559C507,137.212 507.18,136.889 507.476,136.707C509.497,135.463 517.364,130.622 519.476,129.323C519.797,129.125 520.203,129.125 520.524,129.323C522.953,130.817 533,137 533,137C533,137 533,148.31 533,153C533,153.53 532.789,154.039 532.414,154.414C532.039,154.789 531.53,155 531,155C526.157,155 513.843,155 509,155C508.47,155 507.961,154.789 507.586,154.414C507.211,154.039 507,153.53 507,153C507,148.935 507,139.893 507,137.559Z" style="fill:rgb(138,138,138);"/>
                <clipPath id="_clip1">
                    <path d="M507,137.559C507,137.212 507.18,136.889 507.476,136.707C509.497,135.463 517.364,130.622 519.476,129.323C519.797,129.125 520.203,129.125 520.524,129.323C522.953,130.817 533,137 533,137C533,137 533,148.31 533,153C533,153.53 532.789,154.039 532.414,154.414C532.039,154.789 531.53,155 531,155C526.157,155 513.843,155 509,155C508.47,155 507.961,154.789 507.586,154.414C507.211,154.039 507,153.53 507,153C507,148.935 507,139.893 507,137.559Z"/>
                </clipPath>
                <g clip-path="url(#_clip1)">
                    <g transform="matrix(1,0,0,1.23077,504,30.5385)">
                        <g transform="matrix(2.16667,1.65838e-17,-2.04108e-17,-1.625,-829,244.125)">
                            <path d="M389.687,91.313C389.864,91.136 390.136,91.136 390.313,91.313C391.546,92.546 396,97 396,97L384,97C384,97 388.454,92.546 389.687,91.313Z" style="fill:rgb(51,51,51);"/>
                        </g>
                        <g transform="matrix(2.16667,-1.65838e-17,-2.04108e-17,1.625,-829,-56.5)">
                            <path d="M389.687,91.313C389.864,91.136 390.136,91.136 390.313,91.313C391.546,92.546 396,97 396,97L384,97C384,97 388.454,92.546 389.687,91.313Z" style="fill:rgb(93,93,93);"/>
                        </g>
                    </g>
                </g>
            </g>
        </g>
    </g>
</svg>
