<?xml version="1.0" encoding="UTF-8" standalone="no"?>
<!DOCTYPE svg PUBLIC "-//W3C//DTD SVG 1.1//EN" "http://www.w3.org/Graphics/SVG/1.1/DTD/svg11.dtd">
<svg width="100%" height="100%" viewBox="0 0 32 32" version="1.1" xmlns="http://www.w3.org/2000/svg" xmlns:xlink="http://www.w3.org/1999/xlink" xml:space="preserve" xmlns:serif="http://www.serif.com/" style="fill-rule:evenodd;clip-rule:evenodd;stroke-linejoin:round;stroke-miterlimit:2;">
    <g transform="matrix(1,0,0,1,-462,-126)">
        <g id="ic_not_seen" transform="matrix(1,0,0,1.23077,462,27.5385)">
            <rect x="0" y="80" width="32" height="26" style="fill:none;"/>
            <g transform="matrix(1.73333,0,0,-1.40833,-1039.6,1774.28)">
                <path d="M601.868,1195.25C601.663,1195.05 601.632,1194.74 601.794,1194.5C603.012,1192.94 605.81,1191 609,1191C612.203,1191 615.011,1192.95 616.221,1194.52C616.382,1194.75 616.349,1195.07 616.143,1195.26C615.082,1196.25 611.851,1199 609,1199C606.139,1199 602.924,1196.23 601.868,1195.25Z" style="fill:rgb(51,51,51);"/>
                <path d="M601.868,1195.25C601.663,1195.05 601.632,1194.74 601.794,1194.5C603.012,1192.94 605.81,1191 609,1191C612.203,1191 615.011,1192.95 616.221,1194.52C616.382,1194.75 616.349,1195.07 616.143,1195.26C615.082,1196.25 611.851,1199 609,1199C606.139,1199 602.924,1196.23 601.868,1195.25ZM615.744,1194.85C615.123,1195.42 613.756,1196.6 612.167,1197.46C611.154,1198.01 610.051,1198.42 609,1198.42C607.946,1198.42 606.843,1198 605.832,1197.46C604.246,1196.6 602.886,1195.41 602.27,1194.83C603.421,1193.38 606.029,1191.58 609,1191.58C611.982,1191.58 614.6,1193.38 615.744,1194.85Z" style="fill:rgb(51,51,51);"/>
            </g>
            <g transform="matrix(1,0,0,-1,-0.466328,184.97)">
                <g transform="matrix(1.73333,0,0,1.40833,-1039.13,-1589.25)">
                    <path d="M609.5,1190L609.5,1187L608.5,1187L608.5,1190L609.5,1190Z" style="fill:rgb(102,102,102);"/>
                </g>
                <g transform="matrix(1.59932,-0.542985,0.66829,1.29945,-1759.45,-1127.92)">
                    <path d="M609.5,1190L609.5,1187L608.5,1187L608.5,1190L609.5,1190Z" style="fill:rgb(102,102,102);"/>
                </g>
                <g transform="matrix(-1.59932,-0.542985,-0.66829,1.29945,1792.38,-1127.92)">
                    <path d="M608.5,1190L608.5,1187L609.5,1187L609.5,1190L608.5,1190Z" style="fill:rgb(102,102,102);"/>
                </g>
            </g>
        </g>
    </g>
</svg>
