<?xml version="1.0" encoding="UTF-8" standalone="no"?>
<!DOCTYPE svg PUBLIC "-//W3C//DTD SVG 1.1//EN" "http://www.w3.org/Graphics/SVG/1.1/DTD/svg11.dtd">
<svg width="100%" height="100%" viewBox="0 0 32 32" version="1.1" xmlns="http://www.w3.org/2000/svg" xmlns:xlink="http://www.w3.org/1999/xlink" xml:space="preserve" xmlns:serif="http://www.serif.com/" style="fill-rule:evenodd;clip-rule:evenodd;stroke-linejoin:round;stroke-miterlimit:2;">
    <g transform="matrix(1,0,0,1,-336,-84)">
        <g id="ic_meter" transform="matrix(1,0,0,1,336,42)">
            <rect x="0" y="42" width="32" height="32" style="fill:none;"/>
            <g transform="matrix(3.25,0,0,3.25,-16.5,-111)">
                <g transform="matrix(1,0,0,1,-1527.5,-1057)">
                    <path d="M1537.5,1105C1539.71,1105 1541.5,1106.79 1541.5,1109C1541.5,1111.21 1539.71,1113 1537.5,1113C1535.29,1113 1533.5,1111.21 1533.5,1109C1533.5,1106.79 1535.29,1105 1537.5,1105ZM1540,1110.75C1540.34,1110.26 1540.53,1109.68 1540.5,1109C1540.5,1107.34 1539.16,1106 1537.5,1106C1535.85,1106 1534.51,1107.34 1534.5,1108.99L1534.5,1109C1534.53,1109.65 1534.67,1110.24 1535,1110.75L1536.5,1110.75C1536.5,1110.2 1536.95,1109.75 1537.5,1109.75C1538.05,1109.75 1538.5,1110.2 1538.5,1110.75L1540,1110.75Z" style="fill:rgb(51,51,51);"/>
                </g>
                <g transform="matrix(0.938747,-0.344606,0.344606,0.938747,-1816.16,-459.208)">
                    <path d="M1536.7,1109.5C1536.69,1109.35 1536.72,1109.21 1536.77,1109.06C1537.06,1108.23 1537.5,1107 1537.5,1107C1537.5,1107 1537.94,1108.23 1538.23,1109.06C1538.28,1109.21 1538.31,1109.35 1538.3,1109.5L1536.7,1109.5Z" style="fill:rgb(102,102,102);"/>
                </g>
            </g>
        </g>
    </g>
</svg>
