<?xml version="1.0" encoding="UTF-8" standalone="no"?>
<!DOCTYPE svg PUBLIC "-//W3C//DTD SVG 1.1//EN" "http://www.w3.org/Graphics/SVG/1.1/DTD/svg11.dtd">
<svg width="100%" height="100%" viewBox="0 0 32 32" version="1.1" xmlns="http://www.w3.org/2000/svg" xmlns:xlink="http://www.w3.org/1999/xlink" xml:space="preserve" xmlns:serif="http://www.serif.com/" style="fill-rule:evenodd;clip-rule:evenodd;stroke-linejoin:round;stroke-miterlimit:2;">
    <g transform="matrix(1,0,0,1,-420,-168)">
        <g id="ic_time" transform="matrix(1,0,0,1.23077,420,69.5385)">
            <rect x="0" y="80" width="32" height="26" style="fill:none;"/>
            <g transform="matrix(1,0,0,0.8125,-210,-22.375)">
                <path d="M226,129C233.175,129 239,134.825 239,142C239,149.175 233.175,155 226,155C218.825,155 213,149.175 213,142C213,134.825 218.825,129 226,129ZM225.387,143.187C225.3,143.02 225.252,142.831 225.252,142.63L225.252,133.875C225.252,133.202 225.798,132.656 226.471,132.656C227.143,132.656 227.689,133.202 227.689,133.875L227.689,142L230.869,144.256C231.417,144.645 231.547,145.407 231.157,145.955C230.768,146.504 230.007,146.633 229.458,146.244L225.765,143.624C225.601,143.507 225.475,143.358 225.389,143.191L225.387,143.187Z" style="fill:rgb(51,51,51);"/>
            </g>
        </g>
    </g>
</svg>
