<?xml version="1.0" encoding="UTF-8" standalone="no"?>
<!DOCTYPE svg PUBLIC "-//W3C//DTD SVG 1.1//EN" "http://www.w3.org/Graphics/SVG/1.1/DTD/svg11.dtd">
<svg width="100%" height="100%" viewBox="0 0 32 32" version="1.1" xmlns="http://www.w3.org/2000/svg" xmlns:xlink="http://www.w3.org/1999/xlink" xml:space="preserve" xmlns:serif="http://www.serif.com/" style="fill-rule:evenodd;clip-rule:evenodd;stroke-linejoin:round;stroke-miterlimit:2;">
    <g transform="matrix(1,0,0,1,-630,-84)">
        <g id="ic_refresh" transform="matrix(1,0,0,1.23077,630,-14.4615)">
            <rect x="0" y="80" width="32" height="26" style="fill:none;"/>
            <g transform="matrix(1,0,0,1,-1.5,-0.40625)">
                <g transform="matrix(1,0,0,0.8125,-420,11.75)">
                    <path d="M437.5,109.52C442.478,109.52 446.52,105.478 446.52,100.5C446.52,98.767 446.021,97.077 445.092,95.629C444.807,95.201 444.898,94.627 445.3,94.307C445.294,94.3 445.294,94.3 445.294,94.3C445.513,94.126 445.794,94.051 446.07,94.094C446.346,94.137 446.592,94.294 446.747,94.526C447.885,96.303 448.5,98.375 448.5,100.5C448.5,106.571 443.571,111.5 437.5,111.5L437.5,113L433.5,110.5L437.5,108L437.5,109.52Z" style="fill:rgb(51,51,51);"/>
                </g>
                <g transform="matrix(1,0,0,0.8125,-420,11.75)">
                    <path d="M437.5,89.5C437.5,89.5 437.5,88 437.5,88L441.5,90.5L437.5,93L437.5,91.48C432.522,91.48 428.48,95.522 428.48,100.5C428.48,102.233 428.979,103.923 429.908,105.371C430.193,105.799 430.102,106.373 429.7,106.693C429.706,106.7 429.706,106.7 429.706,106.7C429.487,106.874 429.206,106.949 428.93,106.906C428.654,106.863 428.408,106.706 428.253,106.474C427.115,104.697 426.5,102.625 426.5,100.5C426.5,94.429 431.429,89.5 437.5,89.5Z" style="fill:rgb(51,51,51);"/>
                </g>
            </g>
        </g>
    </g>
</svg>
