<?xml version="1.0" encoding="UTF-8" standalone="no"?>
<!DOCTYPE svg PUBLIC "-//W3C//DTD SVG 1.1//EN" "http://www.w3.org/Graphics/SVG/1.1/DTD/svg11.dtd">
<svg width="100%" height="100%" viewBox="0 0 32 32" version="1.1" xmlns="http://www.w3.org/2000/svg" xmlns:xlink="http://www.w3.org/1999/xlink" xml:space="preserve" xmlns:serif="http://www.serif.com/" style="fill-rule:evenodd;clip-rule:evenodd;stroke-linecap:round;stroke-linejoin:round;stroke-miterlimit:1.5;">
    <g transform="matrix(1,0,0,1,-378,-84)">
        <g id="ic_calendar" transform="matrix(1,0,0,1,336,42)">
            <rect x="42" y="42" width="32" height="32" style="fill:none;"/>
            <g transform="matrix(1.5,0,0,1.375,-29,-20.75)">
                <path d="M66,51.455C66,51.069 65.86,50.699 65.609,50.426C65.359,50.153 65.02,50 64.667,50C61.653,50 54.347,50 51.333,50C50.98,50 50.641,50.153 50.391,50.426C50.14,50.699 50,51.069 50,51.455C50,54.497 50,61.503 50,64.545C50,64.931 50.14,65.301 50.391,65.574C50.641,65.847 50.98,66 51.333,66C54.347,66 61.653,66 64.667,66C65.02,66 65.359,65.847 65.609,65.574C65.86,65.301 66,64.931 66,64.545C66,61.503 66,54.497 66,51.455Z" style="fill:none;"/>
                <clipPath id="_clip1">
                    <path d="M66,51.455C66,51.069 65.86,50.699 65.609,50.426C65.359,50.153 65.02,50 64.667,50C61.653,50 54.347,50 51.333,50C50.98,50 50.641,50.153 50.391,50.426C50.14,50.699 50,51.069 50,51.455C50,54.497 50,61.503 50,64.545C50,64.931 50.14,65.301 50.391,65.574C50.641,65.847 50.98,66 51.333,66C54.347,66 61.653,66 64.667,66C65.02,66 65.359,65.847 65.609,65.574C65.86,65.301 66,64.931 66,64.545C66,61.503 66,54.497 66,51.455Z"/>
                </clipPath>
                <g clip-path="url(#_clip1)">
                    <g transform="matrix(1.22222,0,0,1.33333,-12.8889,-19.9394)">
                        <g transform="matrix(1,0,0,1,-384,-966)">
                            <rect x="437.5" y="1026.5" width="2" height="2" style="fill:rgb(138,138,138);"/>
                        </g>
                        <g transform="matrix(1,0,0,1,-384,-966)">
                            <rect x="441" y="1026.5" width="2" height="2" style="fill:rgb(138,138,138);"/>
                        </g>
                        <g transform="matrix(1,0,0,1,-384,-966)">
                            <rect x="437.5" y="1023.5" width="2" height="2" style="fill:rgb(138,138,138);"/>
                        </g>
                        <g transform="matrix(1,0,0,1,-384,-966)">
                            <rect x="441" y="1023.5" width="2" height="2" style="fill:rgb(138,138,138);"/>
                        </g>
                        <g transform="matrix(1,0,0,1,-384,-966)">
                            <rect x="444.5" y="1023.5" width="2" height="2" style="fill:rgb(138,138,138);"/>
                        </g>
                    </g>
                    <g transform="matrix(1.14286,0,0,1.30909,-8.28571,-18.2182)">
                        <rect x="51" y="51" width="14" height="5" style="fill:rgb(51,51,51);"/>
                    </g>
                </g>
                <path d="M66,51.455C66,51.069 65.86,50.699 65.609,50.426C65.359,50.153 65.02,50 64.667,50C61.653,50 54.347,50 51.333,50C50.98,50 50.641,50.153 50.391,50.426C50.14,50.699 50,51.069 50,51.455C50,54.497 50,61.503 50,64.545C50,64.931 50.14,65.301 50.391,65.574C50.641,65.847 50.98,66 51.333,66C54.347,66 61.653,66 64.667,66C65.02,66 65.359,65.847 65.609,65.574C65.86,65.301 66,64.931 66,64.545C66,61.503 66,54.497 66,51.455ZM65.041,51.455L65.041,64.545C65.041,64.654 65.001,64.757 64.931,64.834C64.861,64.911 64.766,64.954 64.667,64.954C61.653,64.954 54.347,64.954 51.333,64.954C51.234,64.954 51.139,64.911 51.069,64.834C50.999,64.757 50.959,64.654 50.959,64.545C50.959,61.503 50.959,54.497 50.959,51.455C50.959,51.346 50.999,51.243 51.069,51.166C51.139,51.089 51.234,51.046 51.333,51.046C54.347,51.046 61.653,51.046 64.667,51.046C64.766,51.046 64.861,51.089 64.931,51.166C65.001,51.243 65.041,51.346 65.041,51.455Z" style="fill:rgb(51,51,51);"/>
            </g>
            <g transform="matrix(1,0,0,1,-126,-42)">
                <path d="M178,92L178,88" style="fill:none;stroke:rgb(94,94,94);stroke-width:3px;"/>
            </g>
            <g transform="matrix(1,0,0,1,-114,-42)">
                <path d="M178,92L178,88" style="fill:none;stroke:rgb(94,94,94);stroke-width:3px;"/>
            </g>
        </g>
    </g>
</svg>
