<?xml version="1.0" encoding="UTF-8" standalone="no"?>
<!DOCTYPE svg PUBLIC "-//W3C//DTD SVG 1.1//EN" "http://www.w3.org/Graphics/SVG/1.1/DTD/svg11.dtd">
<svg width="100%" height="100%" viewBox="0 0 32 32" version="1.1" xmlns="http://www.w3.org/2000/svg" xmlns:xlink="http://www.w3.org/1999/xlink" xml:space="preserve" xmlns:serif="http://www.serif.com/" style="fill-rule:evenodd;clip-rule:evenodd;stroke-linejoin:round;stroke-miterlimit:2;">
    <g transform="matrix(1,0,0,1,-378,0)">
        <g id="ic_warning" transform="matrix(1,0,0,1.23077,378,-98.4615)">
            <rect x="0" y="80" width="32" height="26" style="fill:none;"/>
            <g transform="matrix(1.44444,0,0,1.17361,-35.8496,-13.7986)">
                <path d="M35.896,82C40.863,82 44.896,86.033 44.896,91C44.896,95.967 40.863,100 35.896,100C30.929,100 26.896,95.967 26.896,91C26.896,86.033 30.929,82 35.896,82ZM35.897,90C36.431,90 36.864,90.323 36.864,90.721C36.864,91.851 36.864,94.024 36.864,95.153C36.864,95.552 36.431,95.875 35.897,95.875C35.896,95.875 35.896,95.875 35.895,95.875C35.361,95.875 34.928,95.552 34.928,95.153C34.928,94.024 34.928,91.851 34.928,90.721C34.928,90.323 35.361,90 35.895,90C35.896,90 35.896,90 35.897,90ZM34.928,88.007C34.928,88.276 35.026,88.508 35.223,88.705C35.42,88.902 35.655,89 35.928,89C36.202,89 36.437,88.902 36.633,88.705C36.83,88.508 36.928,88.273 36.928,88C36.928,87.722 36.83,87.484 36.633,87.288C36.441,87.096 36.206,87 35.928,87C35.645,87 35.408,87.096 35.216,87.288C35.024,87.48 34.928,87.719 34.928,88.007Z" style="fill:rgb(94,94,94);"/>
            </g>
        </g>
    </g>
</svg>
