<?xml version="1.0" encoding="UTF-8" standalone="no"?>
<!DOCTYPE svg PUBLIC "-//W3C//DTD SVG 1.1//EN" "http://www.w3.org/Graphics/SVG/1.1/DTD/svg11.dtd">
<svg width="100%" height="100%" viewBox="0 0 32 32" version="1.1" xmlns="http://www.w3.org/2000/svg" xmlns:xlink="http://www.w3.org/1999/xlink" xml:space="preserve" xmlns:serif="http://www.serif.com/" style="fill-rule:evenodd;clip-rule:evenodd;stroke-linejoin:round;stroke-miterlimit:2;">
    <g transform="matrix(1,0,0,1,-672,-126)">
        <g id="ic_message" transform="matrix(1,0,0,1.23077,672,27.5385)">
            <rect x="0" y="80" width="32" height="26" style="fill:none;"/>
            <g transform="matrix(1,0,0,0.8125,-462,-22.375)">
                <path d="M491,136C491,135.47 490.789,134.961 490.414,134.586C490.039,134.211 489.53,134 489,134C484.157,134 471.843,134 467,134C466.47,134 465.961,134.211 465.586,134.586C465.211,134.961 465,135.47 465,136C465,139.463 465,146.537 465,150C465,150.53 465.211,151.039 465.586,151.414C465.961,151.789 466.47,152 467,152C471.843,152 484.157,152 489,152C489.53,152 490.039,151.789 490.414,151.414C490.789,151.039 491,150.53 491,150C491,146.537 491,139.463 491,136Z" style="fill:none;"/>
                <clipPath id="_clip1">
                    <path d="M491,136C491,135.47 490.789,134.961 490.414,134.586C490.039,134.211 489.53,134 489,134C484.157,134 471.843,134 467,134C466.47,134 465.961,134.211 465.586,134.586C465.211,134.961 465,135.47 465,136C465,139.463 465,146.537 465,150C465,150.53 465.211,151.039 465.586,151.414C465.961,151.789 466.47,152 467,152C471.843,152 484.157,152 489,152C489.53,152 490.039,151.789 490.414,151.414C490.789,151.039 491,150.53 491,150C491,146.537 491,139.463 491,136Z"/>
                </clipPath>
                <g clip-path="url(#_clip1)">
                    <g transform="matrix(1,0,0,1.23077,462,27.5385)">
                        <g transform="matrix(1,0,0,0.8125,-462,-22.375)">
                            <rect x="465" y="134" width="26" height="18" style="fill:rgb(138,138,138);"/>
                        </g>
                        <g transform="matrix(2.16667,-1.65838e-17,-2.04108e-17,1.625,-829,-56.5)">
                            <path d="M389.687,91.313C389.864,91.136 390.136,91.136 390.313,91.313C391.546,92.546 396,97 396,97L384,97C384,97 388.454,92.546 389.687,91.313Z" style="fill:rgb(93,93,93);"/>
                        </g>
                        <g transform="matrix(2.16667,1.65838e-17,-2.04108e-17,-1.625,-829,244.125)">
                            <path d="M389.687,91.313C389.864,91.136 390.136,91.136 390.313,91.313C391.546,92.546 396,97 396,97L384,97C384,97 388.454,92.546 389.687,91.313Z" style="fill:rgb(51,51,51);"/>
                        </g>
                    </g>
                </g>
            </g>
        </g>
    </g>
</svg>
