<?xml version="1.0" encoding="UTF-8" standalone="no"?>
<!DOCTYPE svg PUBLIC "-//W3C//DTD SVG 1.1//EN" "http://www.w3.org/Graphics/SVG/1.1/DTD/svg11.dtd">
<svg width="100%" height="100%" viewBox="0 0 32 32" version="1.1" xmlns="http://www.w3.org/2000/svg" xmlns:xlink="http://www.w3.org/1999/xlink" xml:space="preserve" xmlns:serif="http://www.serif.com/" style="fill-rule:evenodd;clip-rule:evenodd;stroke-linejoin:round;stroke-miterlimit:1.5;">
    <g transform="matrix(1,0,0,1,-168,-252)">
        <g id="ic_electricity_qi" transform="matrix(1,0,0,1.23077,168,153.538)">
            <rect x="0" y="80" width="32" height="26" style="fill:none;"/>
            <g transform="matrix(1.45984,0,0,1.45984,0.533159,-35.9448)">
                <g transform="matrix(1,0,0,0.8125,-129.586,62.7939)">
                    <g transform="matrix(0.481631,0,0,0.481631,-1.53237,7.37075)">
                        <path d="M289.704,35.769C290.379,34.586 291.638,33.856 293,33.856C294.362,33.856 295.621,34.586 296.296,35.769C300.022,42.289 306.049,52.836 309.754,59.32C310.426,60.495 310.421,61.938 309.741,63.109C309.062,64.28 307.811,65 306.458,65C299.027,65 286.973,65 279.542,65C278.189,65 276.938,64.28 276.259,63.109C275.579,61.938 275.574,60.495 276.246,59.32C279.951,52.836 285.978,42.289 289.704,35.769Z" style="fill:white;stroke:rgb(128,42,131);stroke-width:1.45px;"/>
                    </g>
                    <g transform="matrix(0.248921,0,0,0.248921,67.496,20.5473)">
                        <path d="M291.403,55.393L292.391,45.835L285.173,49.58C284.213,50.017 283.09,49.884 282.258,49.236C281.426,48.587 281.023,47.531 281.211,46.493L284.065,24.284L291.935,25.716L287.998,42.387L294.088,39.993C294.826,39.658 295.688,39.754 296.334,40.244C296.979,40.735 297.303,41.54 297.178,42.34L294.34,55.853L298.368,56.483L291.232,66.5L287.5,54.782L291.403,55.393Z" style="fill:rgb(128,42,131);"/>
                    </g>
                </g>
                <g transform="matrix(1,0,0,0.541667,-1769.5,-662.083)">
                    <rect x="1783" y="1391" width="6" height="6" style="fill:rgb(246,80,61);"/>
                </g>
                <g transform="matrix(1,0,0,0.8125,-1766.31,-1039.8)">
                    <g transform="matrix(4,0,0,4,1779.95,1395.64)">
                        <path d="M0.62,-0.077C0.664,-0.046 0.704,-0.024 0.741,-0.01L0.713,0.056C0.662,0.037 0.611,0.008 0.56,-0.032C0.507,-0.003 0.448,0.012 0.384,0.012C0.319,0.012 0.26,-0.003 0.208,-0.035C0.155,-0.066 0.114,-0.11 0.086,-0.167C0.057,-0.223 0.043,-0.287 0.043,-0.358C0.043,-0.429 0.057,-0.493 0.086,-0.551C0.115,-0.609 0.155,-0.653 0.208,-0.683C0.261,-0.713 0.32,-0.729 0.386,-0.729C0.452,-0.729 0.511,-0.713 0.564,-0.681C0.618,-0.65 0.658,-0.606 0.686,-0.55C0.714,-0.493 0.728,-0.429 0.728,-0.358C0.728,-0.299 0.719,-0.247 0.701,-0.199C0.683,-0.152 0.656,-0.111 0.62,-0.077ZM0.411,-0.198C0.466,-0.182 0.511,-0.16 0.546,-0.129C0.602,-0.18 0.63,-0.257 0.63,-0.358C0.63,-0.416 0.62,-0.467 0.6,-0.51C0.581,-0.554 0.552,-0.587 0.514,-0.611C0.476,-0.635 0.433,-0.647 0.386,-0.647C0.316,-0.647 0.257,-0.623 0.21,-0.574C0.164,-0.526 0.141,-0.454 0.141,-0.358C0.141,-0.265 0.164,-0.193 0.21,-0.144C0.256,-0.094 0.315,-0.069 0.386,-0.069C0.42,-0.069 0.452,-0.075 0.482,-0.088C0.452,-0.107 0.421,-0.121 0.388,-0.129L0.411,-0.198Z" style="fill:white;fill-rule:nonzero;"/>
                    </g>
                    <g transform="matrix(4,0,0,4,1783.06,1395.64)">
                        <path d="M0.25,-0.116L0.25,-0.312L0.056,-0.312L0.056,-0.394L0.25,-0.394L0.25,-0.589L0.333,-0.589L0.333,-0.394L0.528,-0.394L0.528,-0.312L0.333,-0.312L0.333,-0.116L0.25,-0.116Z" style="fill:white;fill-rule:nonzero;"/>
                    </g>
                </g>
            </g>
        </g>
    </g>
</svg>
