<?xml version="1.0" encoding="UTF-8" standalone="no"?>
<!DOCTYPE svg PUBLIC "-//W3C//DTD SVG 1.1//EN" "http://www.w3.org/Graphics/SVG/1.1/DTD/svg11.dtd">
<svg width="100%" height="100%" viewBox="0 0 32 32" version="1.1" xmlns="http://www.w3.org/2000/svg" xmlns:xlink="http://www.w3.org/1999/xlink" xml:space="preserve" xmlns:serif="http://www.serif.com/" style="fill-rule:evenodd;clip-rule:evenodd;stroke-linejoin:round;stroke-miterlimit:2;">
    <g transform="matrix(1,0,0,1,-420,-294)">
        <g id="ic_rssi" transform="matrix(1,0,0,1.23077,420,195.538)">
            <rect x="0" y="80" width="32" height="26" style="fill:none;"/>
            <g transform="matrix(0.896552,0,0,0.896552,2.10345,7.43534)">
                <g transform="matrix(1.25,-2.50371e-32,-1.15556e-32,0.126953,-524,64.6133)">
                    <rect x="420" y="294" width="4" height="32" style="fill:rgb(51,51,51);"/>
                </g>
                <g transform="matrix(1,-8.13705e-33,-6.16298e-33,0.330078,-410,-1.60547)">
                    <rect x="420" y="294" width="4" height="32" style="fill:rgb(51,51,51);"/>
                </g>
                <g transform="matrix(1,-8.13705e-33,0,0.495117,-402,-55.4082)">
                    <rect x="420" y="294" width="4" height="32" style="fill:rgb(94,94,94);"/>
                </g>
                <g transform="matrix(1,-8.13705e-33,0,0.660156,-394,-109.211)">
                    <rect x="420" y="294" width="4" height="32" style="fill:rgb(138,138,138);"/>
                </g>
            </g>
        </g>
    </g>
</svg>
