<?xml version="1.0" encoding="UTF-8" standalone="no"?>
<!DOCTYPE svg PUBLIC "-//W3C//DTD SVG 1.1//EN" "http://www.w3.org/Graphics/SVG/1.1/DTD/svg11.dtd">
<svg width="100%" height="100%" viewBox="0 0 32 32" version="1.1" xmlns="http://www.w3.org/2000/svg" xmlns:xlink="http://www.w3.org/1999/xlink" xml:space="preserve" xmlns:serif="http://www.serif.com/" style="fill-rule:evenodd;clip-rule:evenodd;stroke-linejoin:round;stroke-miterlimit:2;">
    <g transform="matrix(1,0,0,1,-504,-252)">
        <g id="ic_battery_60" transform="matrix(1,0,0,1.23077,504,153.538)">
            <rect x="0" y="80" width="32" height="26" style="fill:none;"/>
            <g transform="matrix(1.19008,0,0,0.777174,-452.893,-113.34)">
                <path d="M391.958,257L391.958,255.045C391.958,254.768 392.047,254.502 392.204,254.306C392.362,254.11 392.576,254 392.799,254C393.501,254 394.499,254 395.201,254C395.424,254 395.638,254.11 395.796,254.306C395.953,254.502 396.042,254.768 396.042,255.045C396.042,255.911 396.042,257 396.042,257C397.063,257.029 397.531,257.036 398.19,257.023C398.415,257.019 398.631,257.128 398.791,257.324C398.952,257.521 399.042,257.789 399.042,258.068C399.042,261.545 399.042,272.511 399.042,275.955C399.042,276.532 398.665,277 398.201,277C396.302,277 391.698,277 389.799,277C389.335,277 388.958,276.532 388.958,275.955C388.958,272.503 388.958,261.497 388.958,258.045C388.958,257.468 389.335,257 389.799,257C390.686,257 391.958,257 391.958,257Z" style="fill:rgb(138,138,138);"/>
                <clipPath id="_clip1">
                    <path d="M391.958,257L391.958,255.045C391.958,254.768 392.047,254.502 392.204,254.306C392.362,254.11 392.576,254 392.799,254C393.501,254 394.499,254 395.201,254C395.424,254 395.638,254.11 395.796,254.306C395.953,254.502 396.042,254.768 396.042,255.045C396.042,255.911 396.042,257 396.042,257C397.063,257.029 397.531,257.036 398.19,257.023C398.415,257.019 398.631,257.128 398.791,257.324C398.952,257.521 399.042,257.789 399.042,258.068C399.042,261.545 399.042,272.511 399.042,275.955C399.042,276.532 398.665,277 398.201,277C396.302,277 391.698,277 389.799,277C389.335,277 388.958,276.532 388.958,275.955C388.958,272.503 388.958,261.497 388.958,258.045C388.958,257.468 389.335,257 389.799,257C390.686,257 391.958,257 391.958,257Z"/>
                </clipPath>
                <g clip-path="url(#_clip1)">
                    <g transform="matrix(0.840278,0,0,0.975758,-7.65278,6.85455)">
                        <rect x="471" y="264" width="14" height="15" style="fill:rgb(51,51,51);"/>
                    </g>
                </g>
            </g>
        </g>
    </g>
</svg>
