<?xml version="1.0" encoding="UTF-8" standalone="no"?>
<!DOCTYPE svg PUBLIC "-//W3C//DTD SVG 1.1//EN" "http://www.w3.org/Graphics/SVG/1.1/DTD/svg11.dtd">
<svg width="100%" height="100%" viewBox="0 0 32 32" version="1.1" xmlns="http://www.w3.org/2000/svg" xmlns:xlink="http://www.w3.org/1999/xlink" xml:space="preserve" xmlns:serif="http://www.serif.com/" style="fill-rule:evenodd;clip-rule:evenodd;stroke-linejoin:round;stroke-miterlimit:2;">
    <g transform="matrix(1,0,0,1,-504,-126)">
        <g id="ic_confirm" transform="matrix(1,0,0,1.23077,504,27.5385)">
            <rect x="0" y="80" width="32" height="26" style="fill:none;"/>
            <g transform="matrix(1.41421,1.14905,-1.41421,1.14905,-6118.86,-7646.99)">
                <path d="M5536.5,1200.5C5536.5,1200.5 5536.5,1194.75 5536.5,1193C5536.5,1192.87 5536.55,1192.74 5536.65,1192.65C5536.74,1192.55 5536.87,1192.5 5537,1192.5C5537.56,1192.5 5538.44,1192.5 5539,1192.5C5539.13,1192.5 5539.26,1192.55 5539.35,1192.65C5539.45,1192.74 5539.5,1192.87 5539.5,1193C5539.5,1194.83 5539.5,1201.17 5539.5,1203C5539.5,1203.28 5539.28,1203.5 5539,1203.5C5537.71,1203.5 5534.29,1203.5 5533,1203.5C5532.72,1203.5 5532.5,1203.28 5532.5,1203C5532.5,1202.44 5532.5,1201.56 5532.5,1201C5532.5,1200.87 5532.55,1200.74 5532.65,1200.65C5532.74,1200.55 5532.87,1200.5 5533,1200.5C5534.07,1200.5 5536.5,1200.5 5536.5,1200.5Z" style="fill:rgb(51,51,51);"/>
            </g>
        </g>
    </g>
</svg>
