<?xml version="1.0" encoding="UTF-8" standalone="no"?>
<!DOCTYPE svg PUBLIC "-//W3C//DTD SVG 1.1//EN" "http://www.w3.org/Graphics/SVG/1.1/DTD/svg11.dtd">
<svg width="100%" height="100%" viewBox="0 0 32 32" version="1.1" xmlns="http://www.w3.org/2000/svg" xmlns:xlink="http://www.w3.org/1999/xlink" xml:space="preserve" xmlns:serif="http://www.serif.com/" style="fill-rule:evenodd;clip-rule:evenodd;stroke-linejoin:round;stroke-miterlimit:2;">
    <g transform="matrix(1,0,0,1,-336,-294)">
        <g id="ic_ch4" transform="matrix(1,0,0,1.23077,336,195.538)">
            <rect x="0" y="80" width="32" height="26" style="fill:none;"/>
            <g transform="matrix(1.18413,0.258682,0.474681,-1.43444,-278.807,442.557)">
                <g>
                    <path d="M139.281,262.465C140.067,262.167 140.953,262 141.889,262C143.975,262 145.809,262.831 146.856,264.083C147.061,264.029 147.277,264 147.5,264C148.88,264 150,265.103 150,266.461C150,266.646 149.979,266.827 149.94,267.001C149.96,267 149.98,267 150,267C151.104,267 152,267.896 152,269C152,269.742 151.595,270.39 150.995,270.735C150.887,272.814 149.138,274.469 147,274.469C146.869,274.469 146.739,274.463 146.611,274.451C146.168,275.138 145.387,275.594 144.5,275.594C143.563,275.594 142.745,275.085 142.317,274.333C141.328,275.114 139.982,275.594 138.5,275.594C136.69,275.594 135.003,275.557 134,274.451C132.551,273.969 131.508,272.089 131.134,270.594C130.451,270.147 130,269.376 130,268.5C130,267.204 130.989,266.137 132.252,266.012C132.842,264.329 134.405,263.102 136.264,263.006C136.61,262.405 137.258,262 138,262C138.487,262 138.934,262.175 139.281,262.465Z" style="fill:rgb(138,138,138);"/>
                </g>
            </g>
            <g transform="matrix(1.39115,0,0,1.39115,-5.11091,-38.1788)">
                <g transform="matrix(0.573066,0,0,0.468857,-954.757,-515.458)">
                    <text x="1679.35px" y="1304.47px" style="font-family:'Arial-BoldMT', 'Arial', sans-serif;font-weight:700;font-size:14px;fill:rgb(51,51,51);">CH</text>
                </g>
                <g transform="matrix(0.573066,0,0,0.468857,-951.063,-514.396)">
                    <text x="1694.32px" y="1304.47px" style="font-family:'Arial-BoldMT', 'Arial', sans-serif;font-weight:700;font-size:9.446px;fill:rgb(51,51,51);">4</text>
                </g>
            </g>
        </g>
    </g>
</svg>
