<?xml version="1.0" encoding="UTF-8" standalone="no"?>
<!DOCTYPE svg PUBLIC "-//W3C//DTD SVG 1.1//EN" "http://www.w3.org/Graphics/SVG/1.1/DTD/svg11.dtd">
<svg width="100%" height="100%" viewBox="0 0 32 32" version="1.1" xmlns="http://www.w3.org/2000/svg" xmlns:xlink="http://www.w3.org/1999/xlink" xml:space="preserve" xmlns:serif="http://www.serif.com/" style="fill-rule:evenodd;clip-rule:evenodd;stroke-linejoin:round;stroke-miterlimit:2;">
    <g transform="matrix(1,0,0,1,-630,-168)">
        <g id="ic_unlocked" transform="matrix(1,0,0,1.23077,630,69.5385)">
            <rect x="0" y="80" width="32" height="26" style="fill:none;"/>
            <g>
                <g transform="matrix(0.918347,0.321567,-0.395775,0.746157,-273.871,-172.2)">
                    <path d="M388,178L388,177.961C388.021,174.668 390.701,172 394,172C397.311,172 400,174.689 400,178L400,181L398,181L398,178C398,175.792 396.208,174 394,174C391.801,174 390.014,175.778 390,177.968C390,177.968 390,178.006 390,178C390,178 388,178 388,178Z" style="fill:rgb(93,93,93);"/>
                </g>
                <g transform="matrix(1,0,0,0.866667,-378,-68.4438)">
                    <path d="M404,184.875C404,184.378 403.789,183.901 403.414,183.549C403.039,183.198 402.53,183 402,183C398.168,183 389.832,183 386,183C385.47,183 384.961,183.198 384.586,183.549C384.211,183.901 384,184.378 384,184.875C384,187.757 384,193.243 384,196.125C384,196.622 384.211,197.099 384.586,197.451C384.961,197.802 385.47,198 386,198C389.832,198 398.168,198 402,198C402.53,198 403.039,197.802 403.414,197.451C403.789,197.099 404,196.622 404,196.125C404,193.243 404,187.757 404,184.875ZM386.068,196.061L401.932,196.061L401.932,184.939L386.068,184.939L386.068,196.061Z" style="fill:rgb(51,51,51);"/>
                </g>
                <g transform="matrix(0.833333,0,0,0.677083,-312.333,-31.3125)">
                    <circle cx="394" cy="189" r="3" style="fill:rgb(51,51,51);"/>
                </g>
            </g>
        </g>
    </g>
</svg>
