<?xml version="1.0" encoding="UTF-8" standalone="no"?>
<!DOCTYPE svg PUBLIC "-//W3C//DTD SVG 1.1//EN" "http://www.w3.org/Graphics/SVG/1.1/DTD/svg11.dtd">
<svg width="100%" height="100%" viewBox="0 0 32 32" version="1.1" xmlns="http://www.w3.org/2000/svg" xmlns:xlink="http://www.w3.org/1999/xlink" xml:space="preserve" xmlns:serif="http://www.serif.com/" style="fill-rule:evenodd;clip-rule:evenodd;stroke-linejoin:round;stroke-miterlimit:2;">
    <g transform="matrix(1,0,0,1,-756,-84)">
        <g id="ic_collection" transform="matrix(1,0,0,1.23077,756,-14.4615)">
            <rect x="0" y="80" width="32" height="26" style="fill:none;"/>
            <g transform="matrix(1,0,0,1,0,0.8125)">
                <g transform="matrix(1.66667,0,0,0.8125,-1179.67,22.3125)">
                    <path d="M724,92C724,91.448 723.731,91 723.4,91C722.25,91 719.75,91 718.6,91C718.269,91 718,91.448 718,92C718,93.11 718,94.89 718,96C718,96.552 718.269,97 718.6,97C719.75,97 722.25,97 723.4,97C723.731,97 724,96.552 724,96C724,94.89 724,93.11 724,92Z" style="fill:rgb(94,94,94);"/>
                </g>
                <g transform="matrix(1.66667,0,0,0.8125,-1191.67,22.3125)">
                    <path d="M724,92C724,91.448 723.731,91 723.4,91C722.25,91 719.75,91 718.6,91C718.269,91 718,91.448 718,92C718,93.11 718,94.89 718,96C718,96.552 718.269,97 718.6,97C719.75,97 722.25,97 723.4,97C723.731,97 724,96.552 724,96C724,94.89 724,93.11 724,92Z" style="fill:rgb(94,94,94);"/>
                </g>
                <g transform="matrix(1.66667,0,0,0.8125,-1179.67,15.8125)">
                    <path d="M724,92C724,91.448 723.731,91 723.4,91C722.25,91 719.75,91 718.6,91C718.269,91 718,91.448 718,92C718,93.11 718,94.89 718,96C718,96.552 718.269,97 718.6,97C719.75,97 722.25,97 723.4,97C723.731,97 724,96.552 724,96C724,94.89 724,93.11 724,92Z" style="fill:rgb(94,94,94);"/>
                </g>
                <g transform="matrix(1.66667,0,0,0.8125,-1191.67,15.8125)">
                    <path d="M724,92C724,91.448 723.731,91 723.4,91C722.25,91 719.75,91 718.6,91C718.269,91 718,91.448 718,92C718,93.11 718,94.89 718,96C718,96.552 718.269,97 718.6,97C719.75,97 722.25,97 723.4,97C723.731,97 724,96.552 724,96C724,94.89 724,93.11 724,92Z" style="fill:rgb(94,94,94);"/>
                </g>
                <g transform="matrix(1.66667,0,0,0.8125,-1179.67,9.3125)">
                    <path d="M724,92C724,91.448 723.731,91 723.4,91C722.25,91 719.75,91 718.6,91C718.269,91 718,91.448 718,92C718,93.11 718,94.89 718,96C718,96.552 718.269,97 718.6,97C719.75,97 722.25,97 723.4,97C723.731,97 724,96.552 724,96C724,94.89 724,93.11 724,92Z" style="fill:rgb(94,94,94);"/>
                </g>
                <g transform="matrix(1.66667,0,0,0.8125,-1191.67,9.3125)">
                    <path d="M724,92C724,91.448 723.731,91 723.4,91C722.25,91 719.75,91 718.6,91C718.269,91 718,91.448 718,92C718,93.11 718,94.89 718,96C718,96.552 718.269,97 718.6,97C719.75,97 722.25,97 723.4,97C723.731,97 724,96.552 724,96C724,94.89 724,93.11 724,92Z" style="fill:rgb(94,94,94);"/>
                </g>
            </g>
        </g>
    </g>
</svg>
