<?xml version="1.0" encoding="UTF-8" standalone="no"?>
<!DOCTYPE svg PUBLIC "-//W3C//DTD SVG 1.1//EN" "http://www.w3.org/Graphics/SVG/1.1/DTD/svg11.dtd">
<svg width="100%" height="100%" viewBox="0 0 32 32" version="1.1" xmlns="http://www.w3.org/2000/svg" xmlns:xlink="http://www.w3.org/1999/xlink" xml:space="preserve" xmlns:serif="http://www.serif.com/" style="fill-rule:evenodd;clip-rule:evenodd;stroke-linejoin:round;stroke-miterlimit:2;">
    <g transform="matrix(1,0,0,1,-672,-210)">
        <g id="ic_humidity" transform="matrix(1,0,0,1.23077,672,111.538)">
            <rect x="0" y="80" width="32" height="26" style="fill:none;"/>
            <g transform="matrix(1.73333,0,0,1.40833,-2892.58,-1834.3)">
                <path d="M1676.08,1369.18C1676.08,1369.18 1673.93,1371.64 1673.93,1373.85C1673.93,1375.04 1674.9,1376 1676.08,1376C1677.27,1376 1678.23,1375.04 1678.23,1373.85C1678.23,1371.64 1676.08,1369.18 1676.08,1369.18Z" style="fill:rgb(93,93,93);"/>
            </g>
            <g transform="matrix(1.73333,0,0,1.40833,-2892.58,-1834.3)">
                <path d="M1682.9,1369.18C1682.9,1369.18 1680.75,1371.64 1680.75,1373.85C1680.75,1375.04 1681.72,1376 1682.9,1376C1684.09,1376 1685.05,1375.04 1685.05,1373.85C1685.05,1371.64 1682.9,1369.18 1682.9,1369.18Z" style="fill:rgb(51,51,51);"/>
            </g>
            <g transform="matrix(1.73333,0,0,1.40833,-2892.58,-1834.3)">
                <path d="M1673.15,1361C1673.15,1361 1671,1363.46 1671,1365.67C1671,1366.86 1671.96,1367.82 1673.15,1367.82C1674.34,1367.82 1675.3,1366.86 1675.3,1365.67C1675.3,1363.46 1673.15,1361 1673.15,1361Z" style="fill:rgb(51,51,51);"/>
            </g>
            <g transform="matrix(1.73333,0,0,1.40833,-2892.58,-1834.3)">
                <path d="M1679.97,1361C1679.97,1361 1677.82,1363.46 1677.82,1365.67C1677.82,1366.86 1678.78,1367.82 1679.97,1367.82C1681.15,1367.82 1682.12,1366.86 1682.12,1365.67C1682.12,1363.46 1679.97,1361 1679.97,1361Z" style="fill:rgb(93,93,93);"/>
            </g>
        </g>
    </g>
</svg>
