<?xml version="1.0" encoding="UTF-8" standalone="no"?>
<!DOCTYPE svg PUBLIC "-//W3C//DTD SVG 1.1//EN" "http://www.w3.org/Graphics/SVG/1.1/DTD/svg11.dtd">
<svg width="100%" height="100%" viewBox="0 0 32 32" version="1.1" xmlns="http://www.w3.org/2000/svg" xmlns:xlink="http://www.w3.org/1999/xlink" xml:space="preserve" xmlns:serif="http://www.serif.com/" style="fill-rule:evenodd;clip-rule:evenodd;stroke-linejoin:round;stroke-miterlimit:2;">
    <g transform="matrix(1,0,0,1,-546,-168)">
        <g id="ic_menu" transform="matrix(1,0,0,1.23077,546,69.5385)">
            <rect x="0" y="80" width="32" height="26" style="fill:none;"/>
            <g transform="matrix(1.13821,0,0,1.13821,-2.21138,-12.8296)">
                <g transform="matrix(1,0,0,0.8125,-336,-22.375)">
                    <path d="M362,133.879C362,133.646 361.907,133.422 361.743,133.257C361.578,133.093 361.354,133 361.121,133C357.82,133 346.18,133 342.879,133C342.646,133 342.422,133.093 342.257,133.257C342.093,133.422 342,133.646 342,133.879C342,134.27 342,134.73 342,135.121C342,135.354 342.093,135.578 342.257,135.743C342.422,135.907 342.646,136 342.879,136C346.18,136 357.82,136 361.121,136C361.354,136 361.578,135.907 361.743,135.743C361.907,135.578 362,135.354 362,135.121C362,134.73 362,134.27 362,133.879Z" style="fill:rgb(51,51,51);"/>
                </g>
                <g transform="matrix(1,0,0,0.8125,-336,-16.4554)">
                    <path d="M362,133.879C362,133.646 361.907,133.422 361.743,133.257C361.578,133.093 361.354,133 361.121,133C357.82,133 346.18,133 342.879,133C342.646,133 342.422,133.093 342.257,133.257C342.093,133.422 342,133.646 342,133.879C342,134.27 342,134.73 342,135.121C342,135.354 342.093,135.578 342.257,135.743C342.422,135.907 342.646,136 342.879,136C346.18,136 357.82,136 361.121,136C361.354,136 361.578,135.907 361.743,135.743C361.907,135.578 362,135.354 362,135.121C362,134.73 362,134.27 362,133.879Z" style="fill:rgb(51,51,51);"/>
                </g>
                <g transform="matrix(1,0,0,0.8125,-336,-10.5357)">
                    <path d="M362,133.879C362,133.646 361.907,133.422 361.743,133.257C361.578,133.093 361.354,133 361.121,133C357.82,133 346.18,133 342.879,133C342.646,133 342.422,133.093 342.257,133.257C342.093,133.422 342,133.646 342,133.879C342,134.27 342,134.73 342,135.121C342,135.354 342.093,135.578 342.257,135.743C342.422,135.907 342.646,136 342.879,136C346.18,136 357.82,136 361.121,136C361.354,136 361.578,135.907 361.743,135.743C361.907,135.578 362,135.354 362,135.121C362,134.73 362,134.27 362,133.879Z" style="fill:rgb(51,51,51);"/>
                </g>
            </g>
        </g>
    </g>
</svg>
