<?xml version="1.0" encoding="UTF-8" standalone="no"?>
<!DOCTYPE svg PUBLIC "-//W3C//DTD SVG 1.1//EN" "http://www.w3.org/Graphics/SVG/1.1/DTD/svg11.dtd">
<svg width="100%" height="100%" viewBox="0 0 32 32" version="1.1" xmlns="http://www.w3.org/2000/svg" xmlns:xlink="http://www.w3.org/1999/xlink" xml:space="preserve" xmlns:serif="http://www.serif.com/" style="fill-rule:evenodd;clip-rule:evenodd;stroke-linejoin:round;stroke-miterlimit:2;">
    <g transform="matrix(1,0,0,1,-420,-126)">
        <g id="ic_seen" transform="matrix(1,0,0,1.23077,420,27.5385)">
            <rect x="0" y="80" width="32" height="26" style="fill:none;"/>
            <g transform="matrix(1.73333,0,0,1.40833,-1039.6,-1587.14)">
                <path d="M601.868,1195.25C601.663,1195.05 601.632,1194.74 601.794,1194.5C603.012,1192.94 605.81,1191 609,1191C612.203,1191 615.011,1192.95 616.221,1194.52C616.382,1194.75 616.349,1195.07 616.143,1195.26C615.082,1196.25 611.851,1199 609,1199C606.139,1199 602.924,1196.23 601.868,1195.25ZM609,1192.5C610.38,1192.5 611.5,1193.62 611.5,1195C611.5,1196.38 610.38,1197.5 609,1197.5C607.62,1197.5 606.5,1196.38 606.5,1195C606.5,1193.62 607.62,1192.5 609,1192.5Z" style="fill:rgb(51,51,51);"/>
                <path d="M601.868,1195.25C601.663,1195.05 601.632,1194.74 601.794,1194.5C603.012,1192.94 605.81,1191 609,1191C612.203,1191 615.011,1192.95 616.221,1194.52C616.382,1194.75 616.349,1195.07 616.143,1195.26C615.082,1196.25 611.851,1199 609,1199C606.139,1199 602.924,1196.23 601.868,1195.25ZM615.744,1194.85C614.6,1193.38 611.982,1191.58 609,1191.58C606.029,1191.58 603.421,1193.38 602.27,1194.83C602.886,1195.41 604.246,1196.6 605.832,1197.46C606.843,1198 607.946,1198.42 609,1198.42C610.051,1198.42 611.154,1198.01 612.167,1197.46C613.76,1196.6 615.13,1195.41 615.744,1194.85ZM609,1191.92C607.302,1191.92 605.923,1193.3 605.923,1195C605.923,1196.7 607.302,1198.08 609,1198.08C610.698,1198.08 612.077,1196.7 612.077,1195C612.077,1193.3 610.698,1191.92 609,1191.92ZM609,1192.5C610.38,1192.5 611.5,1193.62 611.5,1195C611.5,1196.38 610.38,1197.5 609,1197.5C607.62,1197.5 606.5,1196.38 606.5,1195C606.5,1193.62 607.62,1192.5 609,1192.5Z" style="fill:rgb(51,51,51);"/>
            </g>
            <g transform="matrix(1.73333,0,0,1.40833,-1039.6,-1587.14)">
                <path d="M609.5,1190L609.5,1187L608.5,1187L608.5,1190L609.5,1190Z" style="fill:rgb(102,102,102);"/>
            </g>
            <g transform="matrix(1.59932,-0.542985,0.66829,1.29945,-1759.91,-1125.81)">
                <path d="M609.5,1190L609.5,1187L608.5,1187L608.5,1190L609.5,1190Z" style="fill:rgb(102,102,102);"/>
            </g>
            <g transform="matrix(-1.59932,-0.542985,-0.66829,1.29945,1791.91,-1125.81)">
                <path d="M608.5,1190L608.5,1187L609.5,1187L609.5,1190L608.5,1190Z" style="fill:rgb(102,102,102);"/>
            </g>
            <g transform="matrix(0.75,0,0,0.609375,-152.75,7.45729)">
                <path d="M226.307,142.434C226.451,142.154 226.449,141.821 226.302,141.542C226.156,141.263 225.883,141.072 225.571,141.031C225.382,141.014 225.191,141 225,141C222.792,141 221,142.792 221,145C221,145.191 221.014,145.382 221.041,145.57C221.082,145.879 221.271,146.149 221.547,146.294C221.823,146.439 222.153,146.441 222.431,146.299C222.435,146.307 222.435,146.307 222.435,146.307C222.665,146.189 222.777,145.925 222.703,145.678C222.633,145.459 222.6,145.231 222.6,145C222.6,143.675 223.675,142.6 225,142.6C225.23,142.6 225.459,142.633 225.678,142.698C225.923,142.772 226.186,142.66 226.302,142.432C226.307,142.435 226.307,142.435 226.307,142.434Z" style="fill:rgb(102,102,102);"/>
            </g>
        </g>
    </g>
</svg>
