<?xml version="1.0" encoding="UTF-8" standalone="no"?>
<!DOCTYPE svg PUBLIC "-//W3C//DTD SVG 1.1//EN" "http://www.w3.org/Graphics/SVG/1.1/DTD/svg11.dtd">
<svg width="100%" height="100%" viewBox="0 0 32 32" version="1.1" xmlns="http://www.w3.org/2000/svg" xmlns:xlink="http://www.w3.org/1999/xlink" xml:space="preserve" xmlns:serif="http://www.serif.com/" style="fill-rule:evenodd;clip-rule:evenodd;stroke-linejoin:round;stroke-miterlimit:2;">
    <g transform="matrix(1,0,0,1,-420,-84)">
        <g id="ic_granularity" transform="matrix(1,0,0,1.23077,420,-14.4615)">
            <rect x="0" y="80" width="32" height="26" style="fill:none;"/>
            <g transform="matrix(1.7931,0,0,1.4569,-831.69,-1397.41)">
                <path d="M477.42,1022.54C477.16,1022.27 477,1021.9 477,1021.5C477,1020.67 477.672,1020 478.5,1020C479.328,1020 480,1020.67 480,1021.5C480,1022.33 479.328,1023 478.5,1023C478.437,1023 478.375,1023 478.315,1022.99L476.735,1026.15C476.902,1026.39 477,1026.68 477,1027C477,1027.83 476.328,1028.5 475.5,1028.5C474.672,1028.5 474,1027.83 474,1027C474,1026.91 474.008,1026.82 474.024,1026.73L472.147,1024.85C471.951,1024.95 471.731,1025 471.5,1025C471.269,1025 471.049,1024.95 470.853,1024.85L468.854,1026.85C468.947,1027.05 469,1027.27 469,1027.5C469,1028.33 468.328,1029 467.5,1029C466.672,1029 466,1028.33 466,1027.5C466,1026.67 466.672,1026 467.5,1026C467.731,1026 467.951,1026.05 468.147,1026.15L470.146,1024.15C470.053,1023.95 470,1023.73 470,1023.5C470,1022.67 470.672,1022 471.5,1022C472.328,1022 473,1022.67 473,1023.5C473,1023.73 472.947,1023.95 472.854,1024.15L474.548,1025.84C474.807,1025.63 475.139,1025.5 475.5,1025.5C475.643,1025.5 475.781,1025.52 475.912,1025.56L477.42,1022.54Z" style="fill:rgb(51,51,51);"/>
            </g>
            <g transform="matrix(1,0,0,0.8125,-210,11.75)">
                <path d="M221.966,91.483L221.966,89.241L226.448,92.379L221.966,95.517L221.966,93.276L213.896,93.276C213.401,93.276 213,92.875 213,92.38C213,92.379 213,92.379 213,92.379C213,91.884 213.401,91.483 213.896,91.483C216.166,91.483 221.966,91.483 221.966,91.483Z" style="fill:rgb(94,94,94);"/>
            </g>
        </g>
    </g>
</svg>
