<?xml version="1.0" encoding="UTF-8" standalone="no"?>
<!DOCTYPE svg PUBLIC "-//W3C//DTD SVG 1.1//EN" "http://www.w3.org/Graphics/SVG/1.1/DTD/svg11.dtd">
<svg width="100%" height="100%" viewBox="0 0 32 32" version="1.1" xmlns="http://www.w3.org/2000/svg" xmlns:xlink="http://www.w3.org/1999/xlink" xml:space="preserve" xmlns:serif="http://www.serif.com/" style="fill-rule:evenodd;clip-rule:evenodd;stroke-linejoin:round;stroke-miterlimit:2;">
    <g transform="matrix(1,0,0,1,-378,-210)">
        <g id="ic_hot" transform="matrix(1,0,0,1.23077,378,111.538)">
            <rect x="0" y="80" width="32" height="26" style="fill:none;"/>
            <g transform="matrix(0.655652,0,0,0.704167,-464.265,12.0208)">
                <path d="M732.5,100C734.635,108.771 720,110.809 720,120.543C720,125.763 725.601,130 732.5,130C739.399,130 745,125.763 745,120.543C745,110.809 737.837,104.734 732.5,100ZM734.656,112.466C733.291,113.664 731.767,114.833 730.397,116.117C729.126,117.309 727.931,118.63 727.931,120.543C727.931,122.451 729.978,124 732.5,124C735.022,124 737.069,122.451 737.069,120.543C737.069,117.409 736.1,114.761 734.656,112.466Z" style="fill:rgb(94,94,94);"/>
            </g>
        </g>
    </g>
</svg>
