<?xml version="1.0" encoding="UTF-8" standalone="no"?>
<!DOCTYPE svg PUBLIC "-//W3C//DTD SVG 1.1//EN" "http://www.w3.org/Graphics/SVG/1.1/DTD/svg11.dtd">
<svg width="100%" height="100%" viewBox="0 0 32 32" version="1.1" xmlns="http://www.w3.org/2000/svg" xmlns:xlink="http://www.w3.org/1999/xlink" xml:space="preserve" xmlns:serif="http://www.serif.com/" style="fill-rule:evenodd;clip-rule:evenodd;stroke-linecap:round;stroke-linejoin:round;stroke-miterlimit:1.5;">
    <g transform="matrix(1,0,0,1,-756,-168)">
        <g id="ic_pin" transform="matrix(1,0,0,1.23077,756,69.5385)">
            <rect x="0" y="80" width="32" height="26" style="fill:none;"/>
            <g transform="matrix(1,0,0,0.8125,-756,-56.5)">
                <path d="M772,196L772,178" style="fill:none;stroke:rgb(93,93,93);stroke-width:2px;"/>
            </g>
            <g transform="matrix(1,0,0,0.8125,-756,-56.5)">
                <path d="M772,172C774.76,172 777,174.24 777,177C777,179.76 774.76,182 772,182C769.24,182 767,179.76 767,177C767,174.24 769.24,172 772,172ZM772.634,174.3C772.68,174.106 772.634,173.902 772.511,173.746C772.387,173.59 772.199,173.499 772,173.499C772,173.5 772,173.5 772,173.5C770.068,173.5 768.5,175.068 768.5,177C768.5,177.122 768.506,177.244 768.519,177.365C768.541,177.589 768.666,177.79 768.858,177.909C769.05,178.027 769.286,178.048 769.496,177.967C769.498,177.97 769.499,177.97 769.499,177.97C769.755,177.871 769.906,177.607 769.865,177.337C769.844,177.226 769.835,177.113 769.835,177C769.835,175.805 770.805,174.835 772,174.835C772,174.835 772,174.835 772,174.835C772.298,174.835 772.556,174.63 772.625,174.34C772.628,174.327 772.631,174.313 772.634,174.3Z" style="fill:rgb(51,51,51);"/>
            </g>
        </g>
    </g>
</svg>
