<?xml version="1.0" encoding="UTF-8" standalone="no"?>
<!DOCTYPE svg PUBLIC "-//W3C//DTD SVG 1.1//EN" "http://www.w3.org/Graphics/SVG/1.1/DTD/svg11.dtd">
<svg width="100%" height="100%" viewBox="0 0 32 32" version="1.1" xmlns="http://www.w3.org/2000/svg" xmlns:xlink="http://www.w3.org/1999/xlink" xml:space="preserve" xmlns:serif="http://www.serif.com/" style="fill-rule:evenodd;clip-rule:evenodd;stroke-linejoin:round;stroke-miterlimit:2;">
    <g transform="matrix(1,0,0,1,-504,-84)">
        <g id="ic_sort" transform="matrix(1,0,0,1.23077,504,-14.4615)">
            <rect x="0" y="80" width="32" height="26" style="fill:none;"/>
            <g transform="matrix(2.08,0,0,2.08,-5.32,-90.9338)">
                <g transform="matrix(1,0,0,0.8125,-512,-743.875)">
                    <path d="M518.25,1027.75L519.5,1027.75L517.75,1030.25L516,1027.75L517.25,1027.75L517.25,1018.5L518.25,1018.5L518.25,1027.75Z" style="fill:rgb(51,51,51);"/>
                </g>
                <g transform="matrix(1,0,0,0.8125,-512,-743.469)">
                    <rect x="520.5" y="1026" width="2.5" height="1" style="fill:rgb(102,102,102);"/>
                </g>
                <g transform="matrix(1,0,0,0.8125,-512,-743.604)">
                    <rect x="520.5" y="1023.5" width="4.5" height="1" style="fill:rgb(102,102,102);"/>
                </g>
                <g transform="matrix(1,0,0,0.8125,-512,-743.74)">
                    <rect x="520.5" y="1021" width="6.5" height="1" style="fill:rgb(102,102,102);"/>
                </g>
                <g transform="matrix(1,0,0,0.8125,-512,-743.875)">
                    <rect x="520.5" y="1018.5" width="8" height="1" style="fill:rgb(102,102,102);"/>
                </g>
            </g>
        </g>
    </g>
</svg>
