<?xml version="1.0" encoding="UTF-8" standalone="no"?>
<!DOCTYPE svg PUBLIC "-//W3C//DTD SVG 1.1//EN" "http://www.w3.org/Graphics/SVG/1.1/DTD/svg11.dtd">
<svg width="100%" height="100%" viewBox="0 0 32 32" version="1.1" xmlns="http://www.w3.org/2000/svg" xmlns:xlink="http://www.w3.org/1999/xlink" xml:space="preserve" xmlns:serif="http://www.serif.com/" style="fill-rule:evenodd;clip-rule:evenodd;stroke-linejoin:round;stroke-miterlimit:2;">
    <g transform="matrix(1,0,0,1,-546,-42)">
        <g id="ic_category" transform="matrix(1,0,0,1.23077,546,-56.4615)">
            <rect x="0" y="80" width="32" height="26" style="fill:none;"/>
            <g transform="matrix(1.73333,0,0,1.40833,-8374.2,-3542.61)">
                <g transform="matrix(1.15385,0,0,1.15385,-1512,1245.92)">
                    <path d="M5505,1151.5C5505,1151.37 5504.95,1151.24 5504.85,1151.15C5504.76,1151.05 5504.63,1151 5504.5,1151L5499.5,1151C5499.37,1151 5499.24,1151.05 5499.15,1151.15C5499.05,1151.24 5499,1151.37 5499,1151.5L5499,1156.5C5499,1156.63 5499.05,1156.76 5499.15,1156.85C5499.24,1156.95 5499.37,1157 5499.5,1157L5504.5,1157C5504.63,1157 5504.76,1156.95 5504.85,1156.85C5504.95,1156.76 5505,1156.63 5505,1156.5L5505,1151.5Z" style="fill:rgb(51,51,51);"/>
                    <path d="M5505,1151.5C5505,1151.37 5504.95,1151.24 5504.85,1151.15C5504.76,1151.05 5504.63,1151 5504.5,1151L5499.5,1151C5499.37,1151 5499.24,1151.05 5499.15,1151.15C5499.05,1151.24 5499,1151.37 5499,1151.5C5499,1152.63 5499,1155.37 5499,1156.5C5499,1156.63 5499.05,1156.76 5499.15,1156.85C5499.24,1156.95 5499.37,1157 5499.5,1157L5504.5,1157C5504.63,1157 5504.76,1156.95 5504.85,1156.85C5504.95,1156.76 5505,1156.63 5505,1156.5L5505,1151.5ZM5500,1156L5504,1156L5504,1152L5500,1152L5500,1156Z" style="fill:rgb(51,51,51);"/>
                </g>
                <g transform="matrix(1.15385,0,0,1.15385,-1503.92,1245.92)">
                    <path d="M5505,1151.5C5505,1151.37 5504.95,1151.24 5504.85,1151.15C5504.76,1151.05 5504.63,1151 5504.5,1151L5499.5,1151C5499.37,1151 5499.24,1151.05 5499.15,1151.15C5499.05,1151.24 5499,1151.37 5499,1151.5L5499,1156.5C5499,1156.63 5499.05,1156.76 5499.15,1156.85C5499.24,1156.95 5499.37,1157 5499.5,1157L5504.5,1157C5504.63,1157 5504.76,1156.95 5504.85,1156.85C5504.95,1156.76 5505,1156.63 5505,1156.5L5505,1151.5Z" style="fill:rgb(93,93,93);"/>
                    <path d="M5505,1151.5C5505,1151.37 5504.95,1151.24 5504.85,1151.15C5504.76,1151.05 5504.63,1151 5504.5,1151L5499.5,1151C5499.37,1151 5499.24,1151.05 5499.15,1151.15C5499.05,1151.24 5499,1151.37 5499,1151.5L5499,1156.5C5499,1156.63 5499.05,1156.76 5499.15,1156.85C5499.24,1156.95 5499.37,1157 5499.5,1157L5504.5,1157C5504.63,1157 5504.76,1156.95 5504.85,1156.85C5504.95,1156.76 5505,1156.63 5505,1156.5L5505,1151.5ZM5500,1156L5504,1156L5504,1152L5500,1152L5500,1156Z" style="fill:rgb(51,51,51);"/>
                </g>
                <g transform="matrix(1.15385,0,0,1.15385,-1503.92,1254)">
                    <path d="M5505,1151.5C5505,1151.37 5504.95,1151.24 5504.85,1151.15C5504.76,1151.05 5504.63,1151 5504.5,1151L5499.5,1151C5499.37,1151 5499.24,1151.05 5499.15,1151.15C5499.05,1151.24 5499,1151.37 5499,1151.5L5499,1156.5C5499,1156.63 5499.05,1156.76 5499.15,1156.85C5499.24,1156.95 5499.37,1157 5499.5,1157L5504.5,1157C5504.63,1157 5504.76,1156.95 5504.85,1156.85C5504.95,1156.76 5505,1156.63 5505,1156.5L5505,1151.5Z" style="fill:rgb(93,93,93);"/>
                    <path d="M5505,1151.5C5505,1151.37 5504.95,1151.24 5504.85,1151.15C5504.76,1151.05 5504.63,1151 5504.5,1151L5499.5,1151C5499.37,1151 5499.24,1151.05 5499.15,1151.15C5499.05,1151.24 5499,1151.37 5499,1151.5L5499,1156.5C5499,1156.63 5499.05,1156.76 5499.15,1156.85C5499.24,1156.95 5499.37,1157 5499.5,1157L5504.5,1157C5504.63,1157 5504.76,1156.95 5504.85,1156.85C5504.95,1156.76 5505,1156.63 5505,1156.5L5505,1151.5ZM5500,1156L5504,1156L5504,1152L5500,1152L5500,1156Z" style="fill:rgb(51,51,51);"/>
                </g>
                <g transform="matrix(1.15385,0,0,1.15385,-1512,1254)">
                    <path d="M5505,1151.5C5505,1151.37 5504.95,1151.24 5504.85,1151.15C5504.76,1151.05 5504.63,1151 5504.5,1151L5499.5,1151C5499.37,1151 5499.24,1151.05 5499.15,1151.15C5499.05,1151.24 5499,1151.37 5499,1151.5L5499,1156.5C5499,1156.63 5499.05,1156.76 5499.15,1156.85C5499.24,1156.95 5499.37,1157 5499.5,1157L5504.5,1157C5504.63,1157 5504.76,1156.95 5504.85,1156.85C5504.95,1156.76 5505,1156.63 5505,1156.5L5505,1151.5Z" style="fill:rgb(93,93,93);"/>
                    <path d="M5505,1151.5C5505,1151.37 5504.95,1151.24 5504.85,1151.15C5504.76,1151.05 5504.63,1151 5504.5,1151L5499.5,1151C5499.37,1151 5499.24,1151.05 5499.15,1151.15C5499.05,1151.24 5499,1151.37 5499,1151.5C5499,1152.63 5499,1155.37 5499,1156.5C5499,1156.63 5499.05,1156.76 5499.15,1156.85C5499.24,1156.95 5499.37,1157 5499.5,1157L5504.5,1157C5504.63,1157 5504.76,1156.95 5504.85,1156.85C5504.95,1156.76 5505,1156.63 5505,1156.5L5505,1151.5ZM5500,1156L5504,1156L5504,1152L5500,1152L5500,1156Z" style="fill:rgb(51,51,51);"/>
                </g>
            </g>
        </g>
    </g>
</svg>
