<?xml version="1.0" encoding="UTF-8" standalone="no"?>
<!DOCTYPE svg PUBLIC "-//W3C//DTD SVG 1.1//EN" "http://www.w3.org/Graphics/SVG/1.1/DTD/svg11.dtd">
<svg width="100%" height="100%" viewBox="0 0 32 32" version="1.1" xmlns="http://www.w3.org/2000/svg" xmlns:xlink="http://www.w3.org/1999/xlink" xml:space="preserve" xmlns:serif="http://www.serif.com/" style="fill-rule:evenodd;clip-rule:evenodd;stroke-linejoin:round;stroke-miterlimit:2;">
    <g transform="matrix(1,0,0,1,-546,-210)">
        <g id="ic_tempareture_cold" transform="matrix(1,0,0,1.23077,546,111.538)">
            <rect x="0" y="80" width="32" height="26" style="fill:none;"/>
            <g transform="matrix(-1.73333,0,0,1.40833,3370,-1692.06)">
                <path d="M1939.54,1270.03C1940.17,1270.54 1940.58,1271.33 1940.58,1272.21C1940.58,1273.75 1939.33,1275 1937.79,1275C1936.25,1275 1935,1273.75 1935,1272.21C1935,1271.33 1935.41,1270.54 1936.05,1270.03L1936.05,1261.74C1936.05,1260.78 1936.83,1260 1937.79,1260C1937.79,1260 1937.79,1260 1937.79,1260C1938.75,1260 1939.54,1260.78 1939.54,1261.74C1939.54,1264.62 1939.54,1270.03 1939.54,1270.03ZM1937.79,1273.76C1938.65,1273.76 1939.34,1273.07 1939.34,1272.21C1939.34,1271.35 1938.65,1270.66 1937.79,1270.66L1937.79,1273.76ZM1935,1269.93L1933.26,1269.93L1933.26,1268.93L1935,1268.93L1935,1269.93ZM1935,1267.26L1931.86,1267.26L1931.86,1266.26L1935,1266.26L1935,1267.26ZM1935,1264.6L1930.47,1264.6L1930.47,1263.6L1935,1263.6L1935,1264.6ZM1938.61,1266.78L1938.61,1261.74C1938.61,1261.3 1938.24,1260.93 1937.79,1260.93C1937.79,1260.93 1937.79,1260.93 1937.79,1260.93C1937.34,1260.93 1936.98,1261.3 1936.98,1261.74L1936.98,1266.78L1938.61,1266.78ZM1935,1261.93L1929.42,1261.93L1929.42,1260.93L1935,1260.93L1935,1261.93Z" style="fill:rgb(51,51,51);"/>
            </g>
        </g>
    </g>
</svg>
