<?xml version="1.0" encoding="UTF-8" standalone="no"?>
<!DOCTYPE svg PUBLIC "-//W3C//DTD SVG 1.1//EN" "http://www.w3.org/Graphics/SVG/1.1/DTD/svg11.dtd">
<svg width="100%" height="100%" viewBox="0 0 32 32" version="1.1" xmlns="http://www.w3.org/2000/svg" xmlns:xlink="http://www.w3.org/1999/xlink" xml:space="preserve" xmlns:serif="http://www.serif.com/" style="fill-rule:evenodd;clip-rule:evenodd;stroke-linejoin:round;stroke-miterlimit:2;">
    <g transform="matrix(1,0,0,1,-420,-504)">
        <g id="ic_fast_forward" transform="matrix(1,0,0,1.23077,420,405.538)">
            <rect x="0" y="80" width="32" height="26" style="fill:none;"/>
            <g transform="matrix(1.25891,0,0,1.25891,-2.25211,-24.0826)">
                <g transform="matrix(-0.000336448,0.325,-0.491428,-0.000335847,265.662,-21.87)">
                    <path d="M354,513L364,527L344,527L354,513Z" style="fill:rgb(51,51,51);"/>
                    <path d="M354,513L364,527L344,527L354,513ZM357.097,523.767L354,519.432L350.903,523.767L357.097,523.767Z" style="fill:rgb(51,51,51);"/>
                </g>
                <g transform="matrix(-0.000336448,0.325,-0.491428,-0.000335847,274.662,-21.87)">
                    <path d="M354,513L364,527L344,527L354,513Z" style="fill:rgb(51,51,51);"/>
                    <path d="M354,513L364,527L344,527L354,513ZM357.097,523.767L354,519.432L350.903,523.767L357.097,523.767Z" style="fill:rgb(51,51,51);"/>
                </g>
            </g>
        </g>
    </g>
</svg>
