<?xml version="1.0" encoding="UTF-8" standalone="no"?>
<!DOCTYPE svg PUBLIC "-//W3C//DTD SVG 1.1//EN" "http://www.w3.org/Graphics/SVG/1.1/DTD/svg11.dtd">
<svg width="100%" height="100%" viewBox="0 0 32 32" version="1.1" xmlns="http://www.w3.org/2000/svg" xmlns:xlink="http://www.w3.org/1999/xlink" xml:space="preserve" xmlns:serif="http://www.serif.com/" style="fill-rule:evenodd;clip-rule:evenodd;stroke-linejoin:round;stroke-miterlimit:2;">
    <g transform="matrix(1,0,0,1,-546,-126)">
        <g id="ic_send" transform="matrix(1,0,0,1.23077,546,27.5385)">
            <rect x="0" y="80" width="32" height="26" style="fill:none;"/>
            <g transform="matrix(6.12323e-17,0.8125,-1,4.97513e-17,158.5,-193.406)">
                <path d="M351.561,131.571C351.705,131.176 352.08,130.914 352.5,130.914C352.92,130.914 353.295,131.176 353.439,131.571C355.428,137.012 360.003,149.534 361.509,153.657C361.621,153.963 361.577,154.306 361.389,154.573C361.202,154.841 360.896,155 360.57,155C358.629,155 355.399,155 355.399,155L352.5,139L351,155L344.43,155C344.104,155 343.798,154.841 343.611,154.573C343.423,154.306 343.379,153.963 343.491,153.657C344.997,149.534 349.572,137.012 351.561,131.571Z" style="fill:rgb(51,51,51);"/>
            </g>
        </g>
    </g>
</svg>
