<?xml version="1.0" encoding="UTF-8" standalone="no"?>
<!DOCTYPE svg PUBLIC "-//W3C//DTD SVG 1.1//EN" "http://www.w3.org/Graphics/SVG/1.1/DTD/svg11.dtd">
<svg width="100%" height="100%" viewBox="0 0 32 32" version="1.1" xmlns="http://www.w3.org/2000/svg" xmlns:xlink="http://www.w3.org/1999/xlink" xml:space="preserve" xmlns:serif="http://www.serif.com/" style="fill-rule:evenodd;clip-rule:evenodd;stroke-linejoin:round;stroke-miterlimit:2;">
    <g transform="matrix(1,0,0,1,-588,-168)">
        <g id="ic_locked" transform="matrix(1,0,0,1.23077,588,69.5385)">
            <rect x="0" y="80" width="32" height="26" style="fill:none;"/>
            <g>
                <g transform="matrix(1,0,0,0.8125,-378,-56.5)">
                    <path d="M388,181L388,177.961C388.021,174.668 390.701,172 394,172C397.311,172 400,174.689 400,178L400,181L398,181L398,178C398,175.792 396.208,174 394,174C391.801,174 390.014,175.778 390,177.968C390,177.968 390,178.006 390,178L390,181L388,181Z" style="fill:rgb(93,93,93);"/>
                </g>
                <g transform="matrix(1,0,0,0.8125,-378,-56.5)">
                    <path d="M404,182.5C404,181.97 403.789,181.461 403.414,181.086C403.039,180.711 402.53,180.5 402,180.5C398.168,180.5 389.832,180.5 386,180.5C385.47,180.5 384.961,180.711 384.586,181.086C384.211,181.461 384,181.97 384,182.5C384,185.574 384,191.426 384,194.5C384,195.03 384.211,195.539 384.586,195.914C384.961,196.289 385.47,196.5 386,196.5C389.832,196.5 398.168,196.5 402,196.5C402.53,196.5 403.039,196.289 403.414,195.914C403.789,195.539 404,195.03 404,194.5C404,191.426 404,185.574 404,182.5ZM394,186C395.38,186 396.5,187.12 396.5,188.5C396.5,189.88 395.38,191 394,191C392.62,191 391.5,189.88 391.5,188.5C391.5,187.12 392.62,186 394,186Z" style="fill:rgb(51,51,51);"/>
                </g>
            </g>
        </g>
    </g>
</svg>
