<?xml version="1.0" encoding="UTF-8" standalone="no"?>
<!DOCTYPE svg PUBLIC "-//W3C//DTD SVG 1.1//EN" "http://www.w3.org/Graphics/SVG/1.1/DTD/svg11.dtd">
<svg width="100%" height="100%" viewBox="0 0 32 32" version="1.1" xmlns="http://www.w3.org/2000/svg" xmlns:xlink="http://www.w3.org/1999/xlink" xml:space="preserve" xmlns:serif="http://www.serif.com/" style="fill-rule:evenodd;clip-rule:evenodd;stroke-miterlimit:1.5;">
    <g transform="matrix(1,0,0,1,-420,-378)">
        <g id="ic_door_sensor" transform="matrix(1,0,0,1.23077,420,279.538)">
            <rect x="0" y="80" width="32" height="26" style="fill:none;"/>
            <g transform="matrix(1.06404,0,0,1.06404,-2.08871,-5.95588)">
                <g transform="matrix(0.857143,-1.98452e-15,0,0.77381,-171.714,47.7321)">
                    <path d="M233,46.95L219,48L219,69L233,70.05L233,46.95Z" style="fill:rgb(138,138,138);"/>
                    <clipPath id="_clip1">
                        <path d="M233,46.95L219,48L219,69L233,70.05L233,46.95Z"/>
                    </clipPath>
                    <g clip-path="url(#_clip1)">
                        <g transform="matrix(2.33333,9.20338e-31,0,2.1,-293.167,-63.3)">
                            <circle cx="223" cy="58" r="1" style="fill:rgb(51,51,51);"/>
                        </g>
                    </g>
                    <path d="M233,46.95L219,48L219,69L233,70.05L233,46.95Z" style="fill:none;stroke:rgb(51,51,51);stroke-width:2.21px;"/>
                </g>
                <g transform="matrix(1.94587,0,0,1.94587,-12.7016,-75.6287)">
                    <g transform="matrix(1,0,0,0.8125,-1686,-1060.29)">
                        <circle cx="1699.5" cy="1412.5" r="2.5" style="fill:rgb(94,94,94);"/>
                    </g>
                    <g transform="matrix(0.707107,0.574524,-0.707107,0.574524,-184.49,-1699.4)">
                        <path d="M1695,1411L1695,1412C1693.34,1412 1692,1413.34 1692,1415L1691,1415C1691,1412.79 1692.79,1411 1695,1411Z" style="fill:rgb(94,94,94);"/>
                    </g>
                    <g transform="matrix(0.707107,0.574524,-0.707107,0.574524,-184.49,-1699.4)">
                        <path d="M1695,1409.5L1695,1410.5C1692.52,1410.5 1690.5,1412.52 1690.5,1415L1689.5,1415C1689.5,1411.96 1691.96,1409.5 1695,1409.5Z" style="fill:rgb(94,94,94);"/>
                    </g>
                    <g transform="matrix(1,0,0,0.8125,-1685.89,-1064.35)">
                        <circle cx="1699" cy="1417" r="1" style="fill:rgb(51,51,51);"/>
                    </g>
                </g>
            </g>
        </g>
    </g>
</svg>
