<?xml version="1.0" encoding="UTF-8" standalone="no"?>
<!DOCTYPE svg PUBLIC "-//W3C//DTD SVG 1.1//EN" "http://www.w3.org/Graphics/SVG/1.1/DTD/svg11.dtd">
<svg width="100%" height="100%" viewBox="0 0 32 32" version="1.1" xmlns="http://www.w3.org/2000/svg" xmlns:xlink="http://www.w3.org/1999/xlink" xml:space="preserve" xmlns:serif="http://www.serif.com/" style="fill-rule:evenodd;clip-rule:evenodd;stroke-linejoin:round;stroke-miterlimit:2;">
    <g transform="matrix(1,0,0,1,-378,-378)">
        <g id="ic_flood_sensor" transform="matrix(1,0,0,1.23077,378,279.538)">
            <rect x="0" y="80" width="32" height="26" style="fill:none;"/>
            <g transform="matrix(0.808244,0,0,0.808244,3.0681,18.6708)">
                <g transform="matrix(2.40753,0,0,2.40753,-21.4493,-119.559)">
                    <g transform="matrix(1,0,0,0.8125,-1686,-1060.29)">
                        <circle cx="1699.5" cy="1412.5" r="2.5" style="fill:rgb(94,94,94);"/>
                    </g>
                    <g transform="matrix(0.707107,0.574524,-0.707107,0.574524,-184.49,-1699.4)">
                        <path d="M1695,1411L1695,1412C1693.34,1412 1692,1413.34 1692,1415L1691,1415C1691,1412.79 1692.79,1411 1695,1411Z" style="fill:rgb(94,94,94);"/>
                    </g>
                    <g transform="matrix(0.707107,0.574524,-0.707107,0.574524,-184.49,-1699.4)">
                        <path d="M1695,1409.5L1695,1410.5C1692.52,1410.5 1690.5,1412.52 1690.5,1415L1689.5,1415C1689.5,1411.96 1691.96,1409.5 1695,1409.5Z" style="fill:rgb(94,94,94);"/>
                    </g>
                    <g transform="matrix(1,0,0,0.8125,-1685.89,-1064.35)">
                        <circle cx="1699" cy="1417" r="1" style="fill:rgb(51,51,51);"/>
                    </g>
                </g>
                <g transform="matrix(4.24499,0,0,2.35163,-7154.93,-3159.19)">
                    <g transform="matrix(0.291667,0,0,0.4125,1194.75,810.988)">
                        <path d="M1684.8,1385.93C1685.62,1387.08 1686.61,1388.43 1687.77,1389.33C1688.74,1390.09 1689.82,1390.56 1691,1390.56C1692.43,1390.56 1693.67,1389.8 1694.82,1388.78C1695.45,1388.23 1696.05,1387.61 1696.69,1387.12C1697.1,1386.82 1697.51,1386.56 1698,1386.56C1698.88,1386.56 1699.67,1387.01 1700.4,1387.57C1701.33,1388.3 1702.16,1389.23 1702.9,1390.06C1703.47,1390.69 1704.42,1390.72 1705.02,1390.14C1705.63,1389.55 1705.66,1388.57 1705.1,1387.94C1704.05,1386.77 1702.84,1385.45 1701.48,1384.58C1700.41,1383.88 1699.24,1383.44 1698,1383.44C1696.57,1383.44 1695.33,1384.2 1694.18,1385.22C1693.55,1385.77 1692.95,1386.39 1692.31,1386.88C1691.9,1387.18 1691.49,1387.44 1691,1387.44C1690.3,1387.44 1689.72,1387.01 1689.18,1386.5C1688.42,1385.79 1687.77,1384.87 1687.2,1384.07C1686.71,1383.38 1685.77,1383.24 1685.11,1383.75C1684.44,1384.26 1684.3,1385.24 1684.8,1385.93Z" style="fill:rgb(51,51,51);"/>
                    </g>
                    <g transform="matrix(0.291667,0,0,0.4125,1194.75,813.738)">
                        <path d="M1684.8,1385.93C1685.62,1387.08 1686.61,1388.43 1687.77,1389.33C1688.74,1390.09 1689.82,1390.56 1691,1390.56C1692.43,1390.56 1693.67,1389.8 1694.82,1388.78C1695.45,1388.23 1696.05,1387.61 1696.69,1387.12C1697.1,1386.82 1697.51,1386.56 1698,1386.56C1698.88,1386.56 1699.67,1387.01 1700.4,1387.57C1701.33,1388.3 1702.16,1389.23 1702.9,1390.06C1703.47,1390.69 1704.42,1390.72 1705.02,1390.14C1705.63,1389.55 1705.66,1388.57 1705.1,1387.94C1704.05,1386.77 1702.84,1385.45 1701.48,1384.58C1700.41,1383.88 1699.24,1383.44 1698,1383.44C1696.57,1383.44 1695.33,1384.2 1694.18,1385.22C1693.55,1385.77 1692.95,1386.39 1692.31,1386.88C1691.9,1387.18 1691.49,1387.44 1691,1387.44C1690.3,1387.44 1689.72,1387.01 1689.18,1386.5C1688.42,1385.79 1687.77,1384.87 1687.2,1384.07C1686.71,1383.38 1685.77,1383.24 1685.11,1383.75C1684.44,1384.26 1684.3,1385.24 1684.8,1385.93Z" style="fill:rgb(51,51,51);"/>
                    </g>
                </g>
            </g>
        </g>
    </g>
</svg>
