<?xml version="1.0" encoding="UTF-8" standalone="no"?>
<!DOCTYPE svg PUBLIC "-//W3C//DTD SVG 1.1//EN" "http://www.w3.org/Graphics/SVG/1.1/DTD/svg11.dtd">
<svg width="100%" height="100%" viewBox="0 0 32 32" version="1.1" xmlns="http://www.w3.org/2000/svg" xmlns:xlink="http://www.w3.org/1999/xlink" xml:space="preserve" xmlns:serif="http://www.serif.com/" style="fill-rule:evenodd;clip-rule:evenodd;stroke-linejoin:round;stroke-miterlimit:2;">
    <g transform="matrix(1,0,0,1,-504,-42)">
        <g id="ic_targeted_audience" transform="matrix(1,0,0,1.23077,504,-56.4615)">
            <rect x="0" y="80" width="32" height="26" style="fill:none;"/>
            <g transform="matrix(1.44444,0,0,1.44444,1.55556,-34.2917)">
                <g transform="matrix(1.125,0,0,0.914062,-6152.42,-971.273)">
                    <path d="M5477.25,1151.76L5477.25,1151L5478.25,1151L5478.25,1151.77C5481.75,1152.03 5484.56,1154.78 5484.92,1158.25L5485.71,1158.25L5485.71,1159.25L5484.96,1159.25C5484.83,1162.96 5481.92,1165.96 5478.25,1166.23L5478.25,1167L5477.25,1167L5477.25,1166.24C5473.55,1166 5470.59,1162.98 5470.47,1159.25L5469.71,1159.25L5469.71,1158.25L5470.5,1158.25C5470.86,1154.75 5473.71,1151.99 5477.25,1151.76ZM5471.47,1159.25C5471.59,1162.43 5474.1,1165 5477.25,1165.23L5477.25,1164.75L5476,1164.75L5477.75,1162.25L5479.5,1164.75L5478.25,1164.75L5478.25,1165.23C5481.36,1164.96 5483.83,1162.4 5483.96,1159.25L5483.46,1159.25L5483.46,1160.5L5480.96,1158.75L5483.46,1157L5483.46,1158.25L5483.92,1158.25C5483.57,1155.33 5481.2,1153.03 5478.25,1152.77L5478.25,1153.25L5479.5,1153.25L5477.75,1155.75L5476,1153.25L5477.25,1153.25L5477.25,1152.77C5474.26,1152.99 5471.86,1155.3 5471.51,1158.25L5471.96,1158.25L5471.96,1157L5474.46,1158.75L5471.96,1160.5L5471.96,1159.25L5471.47,1159.25Z" style="fill:rgb(138,138,138);"/>
                </g>
                <g transform="matrix(0.332308,0,0,0.332308,4.51692,57.6833)">
                    <g transform="matrix(2.70709,0,0,2.19951,-14816.8,-2455.7)">
                        <path d="M5480.63,1161.92L5480.63,1161.5C5480.63,1160.33 5479.95,1159.32 5478.95,1158.85C5478.79,1158.78 5478.67,1158.63 5478.64,1158.45C5478.6,1158.27 5478.65,1158.08 5478.77,1157.95C5479,1157.7 5479.13,1157.36 5479.13,1157C5479.13,1156.21 5478.5,1155.58 5477.71,1155.58C5476.93,1155.58 5476.29,1156.21 5476.29,1157C5476.29,1157.36 5476.42,1157.7 5476.65,1157.95C5476.77,1158.08 5476.82,1158.27 5476.78,1158.45C5476.75,1158.63 5476.63,1158.78 5476.47,1158.85C5475.47,1159.32 5474.79,1160.33 5474.79,1161.5L5474.79,1161.92L5480.63,1161.92Z" style="fill:rgb(51,51,51);"/>
                    </g>
                    <g transform="matrix(1,0,0,0.8125,-587.5,44.4819)">
                        <path d="M605.004,56.691C605.074,56.655 605.145,56.621 605.217,56.587C605.663,56.377 605.983,55.968 606.081,55.485C606.18,55.002 606.044,54.5 605.715,54.133C605.105,53.452 604.735,52.552 604.735,51.567C604.735,49.441 606.461,47.715 608.587,47.715C610.713,47.715 612.439,49.441 612.439,51.567C612.439,52.552 612.069,53.452 611.459,54.133C611.13,54.5 610.994,55.002 611.092,55.485C611.19,55.968 611.511,56.377 611.957,56.587C614.642,57.853 616.5,60.584 616.5,63.749L616.5,64.894L609.07,64.894C608.422,62.097 606.59,59.753 604.13,58.42C604.511,57.902 604.809,57.319 605.004,56.691Z" style="fill:rgb(94,94,94);"/>
                    </g>
                </g>
            </g>
        </g>
    </g>
</svg>
