<?xml version="1.0" encoding="UTF-8" standalone="no"?>
<!DOCTYPE svg PUBLIC "-//W3C//DTD SVG 1.1//EN" "http://www.w3.org/Graphics/SVG/1.1/DTD/svg11.dtd">
<svg width="100%" height="100%" viewBox="0 0 32 32" version="1.1" xmlns="http://www.w3.org/2000/svg" xmlns:xlink="http://www.w3.org/1999/xlink" xml:space="preserve" xmlns:serif="http://www.serif.com/" style="fill-rule:evenodd;clip-rule:evenodd;stroke-linejoin:round;stroke-miterlimit:2;">
    <g transform="matrix(1,0,0,1,-378,-294)">
        <g id="ic_co2" transform="matrix(1,0,0,1.23077,378,195.538)">
            <rect x="0" y="80" width="32" height="26" style="fill:none;"/>
            <g transform="matrix(1.55003,-0.472992,0.76283,1.65029,-3617.24,-1252.83)">
                <path d="M1703.52,1308.45C1702.73,1308.46 1701.95,1308.27 1701.32,1307.9C1700.1,1308.63 1698.28,1308.65 1696.91,1307.85C1695.55,1307.06 1695.01,1305.67 1695.5,1304.51C1694.26,1303.81 1693.67,1302.43 1694.19,1301.15C1694.71,1299.86 1696.2,1299.02 1697.72,1299.04C1698.18,1297.87 1699.64,1297 1701.32,1297C1703.01,1297 1704.47,1297.87 1704.92,1299.04C1706.45,1299.02 1707.93,1299.86 1708.46,1301.15C1708.62,1301.55 1708.67,1301.96 1708.63,1302.36C1708.71,1302.39 1708.78,1302.43 1708.86,1302.48C1709.93,1303.1 1710.35,1304.1 1709.8,1304.7C1710.69,1304.93 1711.08,1305.94 1710.67,1306.95C1710.26,1307.96 1709.21,1308.59 1708.32,1308.35C1708.32,1309.1 1707.24,1309.71 1705.92,1309.71C1704.65,1309.71 1703.61,1309.15 1703.52,1308.45Z" style="fill:rgb(77,77,77);"/>
            </g>
            <g transform="matrix(1.39115,0,0,1.39115,-4.99462,-38.1788)">
                <g transform="matrix(0.573066,0,0,0.468857,-954.757,-515.458)">
                    <text x="1678.57px" y="1304.47px" style="font-family:'Arial-BoldMT', 'Arial', sans-serif;font-weight:700;font-size:14px;fill:rgb(138,138,138);">CO</text>
                </g>
                <g transform="matrix(0.573066,0,0,0.468857,-951.063,-514.396)">
                    <text x="1694.32px" y="1304.47px" style="font-family:'Arial-BoldMT', 'Arial', sans-serif;font-weight:700;font-size:9.446px;fill:rgb(138,138,138);">2</text>
                </g>
            </g>
        </g>
    </g>
</svg>
