<?xml version="1.0" encoding="UTF-8" standalone="no"?>
<!DOCTYPE svg PUBLIC "-//W3C//DTD SVG 1.1//EN" "http://www.w3.org/Graphics/SVG/1.1/DTD/svg11.dtd">
<svg width="100%" height="100%" viewBox="0 0 32 32" version="1.1" xmlns="http://www.w3.org/2000/svg" xmlns:xlink="http://www.w3.org/1999/xlink" xml:space="preserve" xmlns:serif="http://www.serif.com/" style="fill-rule:evenodd;clip-rule:evenodd;stroke-linejoin:round;stroke-miterlimit:2;">
    <g transform="matrix(1,0,0,1,-798,-168)">
        <g id="ic_place" transform="matrix(1,0,0,1.23077,798,69.5385)">
            <rect x="0" y="80" width="32" height="26" style="fill:none;"/>
            <g transform="matrix(1.11111,0,0,0.902778,-889.556,-71.9375)">
                <path d="M815.879,194.31C815.789,194.724 815.423,195.02 815,195.02C814.577,195.02 814.21,194.724 814.121,194.311C812.687,188.263 810,176.825 810,176C810,173.24 812.24,171 815,171C817.76,171 820,173.24 820,176C820,176.825 817.313,188.263 815.879,194.31ZM815,173.5C816.38,173.5 817.5,174.62 817.5,176C817.5,177.38 816.38,178.5 815,178.5C813.62,178.5 812.5,177.38 812.5,176C812.5,174.62 813.62,173.5 815,173.5Z" style="fill:rgb(51,51,51);"/>
            </g>
        </g>
    </g>
</svg>
