<?xml version="1.0" encoding="UTF-8" standalone="no"?>
<!DOCTYPE svg PUBLIC "-//W3C//DTD SVG 1.1//EN" "http://www.w3.org/Graphics/SVG/1.1/DTD/svg11.dtd">
<svg width="100%" height="100%" viewBox="0 0 32 32" version="1.1" xmlns="http://www.w3.org/2000/svg" xmlns:xlink="http://www.w3.org/1999/xlink" xml:space="preserve" xmlns:serif="http://www.serif.com/" style="fill-rule:evenodd;clip-rule:evenodd;stroke-linejoin:round;stroke-miterlimit:2;">
    <g transform="matrix(1,0,0,1,-378,-168)">
        <g id="ic_shrink" transform="matrix(1,0,0,1.23077,378,69.5385)">
            <rect x="0" y="80" width="32" height="26" style="fill:none;"/>
            <g transform="matrix(2.16667,0,0,2.16667,-5.66667,-97.9375)">
                <g transform="matrix(4,0,0,3.25,-110,76.75)">
                    <path d="M30,2C30.828,2 31.5,2.672 31.5,3.5C31.5,4.328 30.828,5 30,5C29.172,5 28.5,4.328 28.5,3.5C28.5,2.672 29.172,2 30,2ZM30,2.25C30.69,2.25 31.25,2.81 31.25,3.5C31.25,4.19 30.69,4.75 30,4.75C29.31,4.75 28.75,4.19 28.75,3.5C28.75,2.81 29.31,2.25 30,2.25Z" style="fill:rgb(94,94,94);"/>
                </g>
                <g transform="matrix(1.33333,0,0,1.08333,-723,-1021.57)">
                    <rect x="547.5" y="1023.83" width="4.5" height="1" style="fill:rgb(51,51,51);"/>
                </g>
            </g>
        </g>
    </g>
</svg>
