<?xml version="1.0" encoding="UTF-8" standalone="no"?>
<!DOCTYPE svg PUBLIC "-//W3C//DTD SVG 1.1//EN" "http://www.w3.org/Graphics/SVG/1.1/DTD/svg11.dtd">
<svg width="100%" height="100%" viewBox="0 0 32 32" version="1.1" xmlns="http://www.w3.org/2000/svg" xmlns:xlink="http://www.w3.org/1999/xlink" xml:space="preserve" xmlns:serif="http://www.serif.com/" style="fill-rule:evenodd;clip-rule:evenodd;stroke-linejoin:round;stroke-miterlimit:2;">
    <g transform="matrix(1,0,0,1,-588,-126)">
        <g id="ic_arrow_up" transform="matrix(1,0,0,1.23077,588,27.5385)">
            <rect x="0" y="80" width="32" height="26" style="fill:none;"/>
            <g transform="matrix(1.83333,0,0,1.48958,-699,-47.0208)">
                <path d="M389.614,91.386C389.827,91.173 390.173,91.173 390.386,91.386C391.321,92.321 393.73,94.73 395.069,96.069C395.225,96.225 395.272,96.459 395.187,96.663C395.103,96.867 394.904,97 394.683,97C392.375,97 387.625,97 385.317,97C385.096,97 384.897,96.867 384.813,96.663C384.728,96.459 384.775,96.225 384.931,96.069C386.27,94.73 388.679,92.321 389.614,91.386Z" style="fill:rgb(51,51,51);"/>
            </g>
        </g>
    </g>
</svg>
