<?xml version="1.0" encoding="UTF-8" standalone="no"?>
<!DOCTYPE svg PUBLIC "-//W3C//DTD SVG 1.1//EN" "http://www.w3.org/Graphics/SVG/1.1/DTD/svg11.dtd">
<svg width="100%" height="100%" viewBox="0 0 32 32" version="1.1" xmlns="http://www.w3.org/2000/svg" xmlns:xlink="http://www.w3.org/1999/xlink" xml:space="preserve" xmlns:serif="http://www.serif.com/" style="fill-rule:evenodd;clip-rule:evenodd;stroke-linejoin:round;stroke-miterlimit:2;">
    <g transform="matrix(1,0,0,1,-588,-210)">
        <g id="ic_temperature_in" transform="matrix(1,0,0,1.23077,588,111.538)">
            <rect x="0" y="80" width="32" height="26" style="fill:none;"/>
            <g transform="matrix(4.62222,0,0,2.56061,-7790.64,-3452.86)">
                <g transform="matrix(0.375,0,0,0.55,1008.69,687.375)">
                    <path d="M1811.04,1270.53C1811.67,1271.04 1812.08,1271.83 1812.08,1272.71C1812.08,1274.25 1810.83,1275.5 1809.29,1275.5C1807.75,1275.5 1806.5,1274.25 1806.5,1272.71C1806.5,1271.83 1806.91,1271.04 1807.55,1270.53L1807.55,1262.24C1807.55,1261.28 1808.33,1260.5 1809.29,1260.5C1809.29,1260.5 1809.29,1260.5 1809.29,1260.5C1810.25,1260.5 1811.04,1261.28 1811.04,1262.24C1811.04,1265.12 1811.04,1270.53 1811.04,1270.53ZM1809.29,1274.26C1810.15,1274.26 1810.84,1273.57 1810.84,1272.71C1810.84,1271.85 1810.15,1271.16 1809.29,1271.16L1809.29,1274.26ZM1810.11,1264.28L1810.11,1262.24C1810.11,1261.8 1809.74,1261.43 1809.29,1261.43C1809.29,1261.43 1809.29,1261.43 1809.29,1261.43C1808.84,1261.43 1808.48,1261.8 1808.48,1262.24L1808.48,1264.28L1810.11,1264.28Z" style="fill:rgb(93,93,93);"/>
                </g>
                <g transform="matrix(-6.88864e-17,-0.55,0.375,-1.01033e-16,1304.19,1669.13)">
                    <path d="M518.25,1027.75L519.5,1027.75L517.75,1030.25L516,1027.75L517.25,1027.75L517.25,1024.5L518.25,1024.5L518.25,1027.75Z" style="fill:rgb(93,93,93);"/>
                </g>
                <g transform="matrix(0.375,0,0,0.55,1010,667.85)">
                    <rect x="1816" y="1296.93" width="2" height="12.83" style="fill:rgb(51,51,51);"/>
                </g>
            </g>
        </g>
    </g>
</svg>
